<?xml version="1.0" standalone="no"?>
<!DOCTYPE svg PUBLIC "-//W3C//DTD SVG 20010904//EN"
 "http://www.w3.org/TR/2001/REC-SVG-20010904/DTD/svg10.dtd">
<svg version="1.0" xmlns="http://www.w3.org/2000/svg"
 width="256.000000pt" height="256.000000pt" viewBox="0 0 256.000000 256.000000"
 preserveAspectRatio="xMidYMid meet">
<metadata>
Created by potrace 1.11, written by Peter Selinger 2001-2013
</metadata>
<g transform="translate(0.000000,256.000000) scale(0.100000,-0.100000)"
fill="#000000" stroke="none">
<path d="M1109 2549 c-558 -82 -998 -510 -1093 -1064 -20 -116 -14 -346 12
-465 109 -505 504 -896 1004 -996 93 -18 339 -27 408 -14 25 4 63 11 85 14 22
4 58 12 80 18 22 6 45 12 50 14 6 1 39 13 75 27 347 131 629 418 755 767 65
183 91 453 59 635 -89 507 -461 910 -952 1034 -42 11 -93 23 -112 26 -58 10
-311 13 -371 4z m370 -508 c65 -73 94 -118 122 -191 28 -74 34 -103 33 -185
-1 -171 -98 -345 -343 -610 -172 -187 -247 -303 -267 -411 -3 -15 -7 -31 -10
-36 -3 -4 -5 -35 -5 -68 0 -33 -4 -60 -7 -60 -15 1 -71 100 -94 166 -30 85
-35 195 -13 279 28 106 127 278 246 425 76 94 179 247 205 306 20 46 39 104
50 159 10 44 4 175 -11 244 -8 40 -15 75 -15 77 0 13 60 -39 109 -95z m-623
-381 c25 -51 26 -134 2 -205 -18 -55 -76 -146 -166 -265 -19 -25 -48 -69 -64
-97 -17 -29 -34 -53 -39 -53 -17 0 -42 73 -44 128 -4 93 33 183 135 325 67 94
95 151 105 216 l7 44 24 -29 c13 -16 31 -45 40 -64z m1172 -295 c22 -34 26
-52 27 -120 0 -97 -23 -152 -118 -277 -93 -121 -138 -190 -144 -220 -8 -38
-16 -35 -41 15 -58 116 -28 224 123 442 64 93 91 153 94 214 1 20 27 -4 59
-54z"/>
</g>
</svg>
