<?xml version="1.0" encoding="UTF-8"?>
<svg width="40px" height="40px" viewBox="0 0 40 40" version="1.1" xmlns="http://www.w3.org/2000/svg" xmlns:xlink="http://www.w3.org/1999/xlink">
    <!-- Generator: Sketch 47.1 (45422) - http://www.bohemiancoding.com/sketch -->
    <title>wagon</title>
    <desc>Created with Sketch.</desc>
    <defs></defs>
    <g id="Page-1" stroke="none" stroke-width="1" fill="none" fill-rule="evenodd">
        <g id="wagon" fill-rule="nonzero">
            <g id="icon" transform="translate(5.000000, 5.000000)">
                <g id="wagon">
                    <path d="M29.8818898,9.45801527 C29.8818898,9.57251908 29.8818898,9.6870229 29.8818898,9.77862595 C29.8346457,9.89312977 29.7874016,10.0076336 29.7637795,10.1450382 C29.2440945,12.5267176 28.7480315,14.9083969 28.2283465,17.2900763 C27.9448819,18.5954198 27.6850394,19.9007634 27.4015748,21.2290076 C27.3543307,21.480916 27.2125984,21.6641221 26.9527559,21.7328244 C26.6929134,21.8015267 26.503937,21.7328244 26.3149606,21.5496183 C24.7086614,20.1526718 22.8661417,19.7175573 20.8110236,20.4274809 C18.8031496,21.1374046 17.6456693,22.5801527 17.3149606,24.6183206 C17.2677165,24.8931298 17.2677165,25.1679389 17.2440945,25.4427481 C15.7086614,25.4427481 14.1968504,25.4427481 12.6850394,25.4427481 C12.6614173,25.4198473 12.6614173,25.3969466 12.6614173,25.3969466 C12.6614173,25.3282443 12.6614173,25.259542 12.6614173,25.2137405 C12.5433071,22.9694656 11.4566929,21.3435115 9.33070866,20.4961832 C7.2519685,19.6717557 5.31496063,20.0610687 3.61417323,21.5267176 C3.42519685,21.6870229 3.25984252,21.7557252 3.02362205,21.6870229 C2.81102362,21.6183206 2.64566929,21.4580153 2.5984252,21.2290076 C1.77165354,17.4045802 0.921259843,13.5572519 0.094488189,9.73282443 C4.92661467e-15,9.32061069 0.25984252,9.02290076 0.708661417,9.02290076 C10.1338583,9.02290076 19.5590551,9.04580153 28.9606299,9.02290076 C29.3858268,9.02290076 29.6929134,9.11450382 29.8818898,9.45801527 Z" id="Shape" fill="#000000"></path>
                    <path d="M18.7086614,0.114503817 C18.7559055,0.41221374 18.8267717,0.732824427 18.8740157,1.03053435 C18.8976378,1.23664122 18.9685039,1.28244275 19.1811024,1.28244275 C20.0787402,1.28244275 20.976378,1.28244275 21.8740157,1.30534351 C22.015748,1.30534351 22.1811024,1.35114504 22.2992126,1.41984733 C23.2204724,1.90076336 24.1417323,2.40458015 25.0629921,2.88549618 C25.2283465,2.97709924 25.2992126,3.06870229 25.2755906,3.27480916 C25.2047244,3.70992366 25.2047244,4.1221374 25.1338583,4.55725191 C25.1102362,4.76335878 25.1574803,4.85496183 25.3464567,4.92366412 C26.0551181,5.22137405 26.7874016,5.54198473 27.519685,5.86259542 C27.3543307,6.4351145 27.1889764,7.00763359 27.023622,7.58015267 C26.8346457,8.17557252 26.8346457,8.17557252 26.1968504,8.19847328 C25.4173228,8.19847328 24.6377953,8.19847328 23.7874016,8.19847328 C23.9527559,7.64885496 24.0708661,7.14503817 24.2598425,6.64122137 C24.3070866,6.52671756 24.519685,6.45801527 24.6850394,6.41221374 C25.2755906,6.27480916 25.8897638,6.18320611 26.503937,6.06870229 C26.5984252,6.04580153 26.6929134,6 26.7874016,5.97709924 C26.7874016,5.95419847 26.7874016,5.93129771 26.7874016,5.88549618 C26.6929134,5.86259542 26.5748031,5.83969466 26.480315,5.83969466 C25.8661417,5.86259542 25.2519685,5.90839695 24.6377953,5.90839695 C24.3543307,5.90839695 24.0472441,5.86259542 23.7874016,5.77099237 C22.7952756,5.38167939 21.8267717,4.96946565 20.8346457,4.58015267 C20.7165354,4.53435115 20.5984252,4.51145038 20.480315,4.48854962 C20.4566929,4.51145038 20.4566929,4.55725191 20.4330709,4.58015267 C20.5275591,4.6259542 20.5984252,4.69465649 20.6929134,4.74045802 C21.5669291,5.17557252 22.4645669,5.63358779 23.3385827,6.06870229 C23.4330709,6.11450382 23.5275591,6.16030534 23.5984252,6.22900763 C23.7637795,6.34351145 23.7874016,6.45801527 23.6456693,6.61832061 C23.1023622,7.1221374 22.5826772,7.6259542 22.0393701,8.12977099 C21.992126,8.17557252 21.9212598,8.19847328 21.8740157,8.19847328 C20.5984252,8.19847328 19.2992126,8.19847328 17.976378,8.19847328 C18.0944882,7.80916031 18.2598425,7.44274809 18.3307087,7.05343511 C18.4251969,6.57251908 18.7086614,6.32061069 19.2047244,6.20610687 C19.6299213,6.11450382 20.007874,5.97709924 20.4330709,5.83969466 C20.5275591,5.81679389 20.5984252,5.7480916 20.6692913,5.70229008 C20.6692913,5.67938931 20.6456693,5.65648855 20.6456693,5.63358779 C20.5511811,5.63358779 20.4566929,5.61068702 20.3622047,5.63358779 C19.7480315,5.7480916 19.1102362,5.83969466 18.496063,5.95419847 C18.0708661,6.04580153 17.6692913,6.02290076 17.2440945,5.88549618 C16.3700787,5.61068702 15.496063,5.35877863 14.6220472,5.08396947 C14.503937,5.0610687 14.3858268,5.03816794 14.2913386,5.01526718 C14.2677165,5.0610687 14.2677165,5.08396947 14.2440945,5.12977099 C14.3385827,5.19847328 14.4330709,5.26717557 14.5275591,5.3129771 C15.4251969,5.63358779 16.2992126,5.97709924 17.1968504,6.27480916 C17.4094488,6.34351145 17.503937,6.45801527 17.480315,6.66412214 C17.480315,7.14503817 17.480315,7.6259542 17.480315,8.15267176 C14.1968504,8.15267176 10.8897638,8.15267176 7.51181102,8.15267176 C7.51181102,7.8778626 7.48818898,7.58015267 7.51181102,7.30534351 C7.53543307,7.19083969 7.65354331,7.07633588 7.7480315,6.98473282 C8.03149606,6.77862595 8.33858268,6.57251908 8.64566929,6.36641221 C8.64566929,6.34351145 8.62204724,6.32061069 8.62204724,6.29770992 C8.57480315,6.29770992 8.50393701,6.27480916 8.45669291,6.27480916 C8.38582677,6.27480916 8.33858268,6.29770992 8.26771654,6.34351145 C7.46456693,6.75572519 6.61417323,6.73282443 5.74015748,6.61832061 C5.03149606,6.52671756 4.2992126,6.48091603 3.56692913,6.38931298 C3.49606299,6.38931298 3.42519685,6.38931298 3.35433071,6.38931298 C3.35433071,6.41221374 3.35433071,6.45801527 3.33070866,6.48091603 C3.42519685,6.50381679 3.49606299,6.54961832 3.59055118,6.54961832 C4.44094488,6.70992366 5.29133858,6.84732824 6.11811024,7.00763359 C6.82677165,7.1221374 7.06299213,7.41984733 7.01574803,8.15267176 C5.52755906,8.15267176 4.01574803,8.15267176 2.50393701,8.15267176 C2.50393701,7.64885496 2.50393701,7.1221374 2.50393701,6.61832061 C2.50393701,6.54961832 2.64566929,6.45801527 2.71653543,6.41221374 C3.77952756,5.97709924 4.86614173,5.5648855 5.92913386,5.10687023 C6.07086614,5.0610687 6.21259843,4.94656489 6.28346457,4.83206107 C6.82677165,4.14503817 7.37007874,3.4351145 7.88976378,2.7480916 C8.00787402,2.58778626 8.12598425,2.54198473 8.33858268,2.58778626 C9.23622047,2.77099237 10.1338583,2.93129771 11.0787402,3.11450382 C11.0551181,2.79389313 11.0551181,2.49618321 11.0314961,2.17557252 C11.007874,1.96946565 11.0787402,1.85496183 11.2677165,1.76335878 C12.2598425,1.21374046 13.2283465,0.641221374 14.2204724,0.0916030534 C15.7322835,0.114503817 17.2204724,0.114503817 18.7086614,0.114503817 Z M11.7401575,1.64885496 C11.7401575,1.67175573 11.7401575,1.71755725 11.7401575,1.74045802 C11.8346457,1.76335878 11.9291339,1.80916031 12,1.80916031 C12.9685039,1.92366412 13.9370079,2.03816794 14.9291339,2.12977099 C15.1417323,2.15267176 15.2362205,2.24427481 15.3070866,2.42748092 C15.5669291,3.13740458 15.8503937,3.82442748 16.1338583,4.53435115 C16.1574803,4.6259542 16.2283465,4.69465649 16.2755906,4.76335878 C16.2992126,4.76335878 16.3228346,4.74045802 16.3464567,4.74045802 C16.3464567,4.64885496 16.3464567,4.53435115 16.3464567,4.44274809 C16.2519685,3.70992366 16.1811024,2.97709924 16.0866142,2.24427481 C16.0629921,1.99236641 16.1102362,1.80916031 16.3464567,1.67175573 C16.8661417,1.35114504 17.3858268,1.00763359 17.8818898,0.664122137 C17.9527559,0.618320611 18.023622,0.549618321 18.0944882,0.480916031 C18.0708661,0.458015267 18.0708661,0.435114504 18.0472441,0.41221374 C17.9527559,0.435114504 17.8582677,0.458015267 17.7637795,0.503816794 C17.1732283,0.801526718 16.6062992,1.1221374 16.015748,1.41984733 C15.7559055,1.53435115 15.4724409,1.6259542 15.1889764,1.6259542 C14.1496063,1.64885496 13.1102362,1.64885496 12.0708661,1.64885496 C11.9527559,1.6259542 11.8582677,1.6259542 11.7401575,1.64885496 Z M13.7244094,6.04580153 C13.7480315,6.02290076 13.8188976,5.97709924 13.8897638,5.90839695 C13.8188976,5.86259542 13.7716535,5.77099237 13.7007874,5.7480916 C13.2047244,5.63358779 12.6850394,5.54198473 12.1889764,5.40458015 C11.9527559,5.33587786 11.7401575,5.22137405 11.5511811,5.08396947 C10.7007874,4.41984733 9.8976378,3.73282443 9.07086614,3.04580153 C8.97637795,2.97709924 8.85826772,2.93129771 8.74015748,2.88549618 C8.78740157,2.97709924 8.83464567,3.11450382 8.90551181,3.18320611 C9.56692913,3.87022901 10.2519685,4.53435115 10.9370079,5.19847328 C11.1496063,5.40458015 11.1496063,5.54198473 11.007874,5.79389313 C10.6535433,6.38931298 10.2992126,7.00763359 9.96850394,7.6259542 C9.92125984,7.71755725 9.96850394,7.83206107 9.94488189,7.94656489 C10.0393701,7.90076336 10.1338583,7.85496183 10.2047244,7.78625954 C10.6771654,7.19083969 11.1732283,6.61832061 11.6456693,6.02290076 C11.7874016,5.83969466 11.9291339,5.77099237 12.1889764,5.81679389 C12.6614173,5.90839695 13.1574803,5.97709924 13.7244094,6.04580153 Z M24.4724409,2.93129771 C24.4724409,2.90839695 24.4724409,2.86259542 24.4724409,2.83969466 C24.3779528,2.81679389 24.2834646,2.79389313 24.1653543,2.79389313 C23.1496063,2.77099237 22.1574803,2.77099237 21.1417323,2.7480916 C20.8346457,2.72519084 20.503937,2.63358779 20.1968504,2.51908397 C19.8661417,2.38167939 19.5590551,2.19847328 19.2283465,2.03816794 C19.1574803,2.01526718 19.0629921,2.03816794 18.992126,2.03816794 C19.0393701,2.10687023 19.0629921,2.17557252 19.1102362,2.22137405 C19.3937008,2.42748092 19.7007874,2.58778626 19.9606299,2.79389313 C20.0787402,2.88549618 20.1732283,3.02290076 20.1968504,3.13740458 C20.2440945,3.45801527 20.2204724,3.77862595 20.2440945,4.09923664 C20.2440945,4.19083969 20.3149606,4.28244275 20.3622047,4.35114504 C20.4094488,4.25954198 20.503937,4.19083969 20.5275591,4.09923664 C20.5748031,3.91603053 20.5984252,3.70992366 20.6456693,3.50381679 C20.7165354,3.18320611 20.8346457,3.06870229 21.1889764,3.06870229 C22.1811024,3.04580153 23.1968504,3 24.1889764,2.97709924 C24.2834646,2.97709924 24.3779528,2.95419847 24.4724409,2.93129771 Z" id="Shape" fill="#000000"></path>
                    <path d="M18.1417323,25.3740458 C18.1417323,22.9236641 20.1732283,20.9541985 22.7007874,20.9541985 C25.2519685,20.9541985 27.2834646,22.9236641 27.2834646,25.3740458 C27.2834646,27.5954198 25.5590551,29.8167939 22.6771654,29.8167939 C19.984252,29.8167939 18.1181102,27.7099237 18.1417323,25.3740458 Z M22.7480315,28.0992366 C24.3070866,28.0992366 25.5590551,26.8854962 25.5590551,25.3740458 C25.5590551,23.8625954 24.2834646,22.6259542 22.7480315,22.6259542 C21.1653543,22.6259542 19.9133858,23.8396947 19.9133858,25.3740458 C19.9133858,26.8854962 21.1653543,28.0992366 22.7480315,28.0992366 Z" id="Shape" fill="#000000"></path>
                    <path d="M7.32283465,20.9770992 C9.8503937,20.9770992 11.8818898,22.9694656 11.8818898,25.3969466 C11.8818898,27.8473282 9.82677165,29.8396947 7.2992126,29.8396947 C4.79527559,29.8396947 2.74015748,27.8244275 2.74015748,25.3969466 C2.74015748,22.9465649 4.79527559,20.9770992 7.32283465,20.9770992 Z M7.27559055,28.0992366 C8.81102362,28.0992366 10.0866142,26.8625954 10.0866142,25.3740458 C10.0866142,23.8625954 8.81102362,22.6259542 7.2519685,22.6259542 C5.71653543,22.6259542 4.44094488,23.8625954 4.44094488,25.351145 C4.44094488,26.8625954 5.71653543,28.0992366 7.27559055,28.0992366 Z" id="Shape" fill="#000000"></path>
                    <path d="M11.7401575,1.64885496 C11.8582677,1.64885496 11.9527559,1.6259542 12.0708661,1.6259542 C13.1102362,1.6259542 14.1496063,1.6259542 15.1889764,1.60305344 C15.4724409,1.60305344 15.7559055,1.51145038 16.015748,1.39694656 C16.6062992,1.1221374 17.1732283,0.801526718 17.7637795,0.480916031 C17.8582677,0.435114504 17.9527559,0.41221374 18.0472441,0.389312977 C18.0708661,0.41221374 18.0708661,0.435114504 18.0944882,0.458015267 C18.023622,0.526717557 17.9527559,0.595419847 17.8818898,0.641221374 C17.3622047,0.984732824 16.8661417,1.32824427 16.3464567,1.64885496 C16.1102362,1.78625954 16.0629921,1.96946565 16.0866142,2.22137405 C16.1811024,2.95419847 16.2755906,3.6870229 16.3464567,4.41984733 C16.3464567,4.51145038 16.3464567,4.6259542 16.3464567,4.71755725 C16.3228346,4.71755725 16.2992126,4.74045802 16.2755906,4.74045802 C16.2283465,4.67175573 16.1811024,4.58015267 16.1338583,4.51145038 C15.8503937,3.80152672 15.5905512,3.11450382 15.3070866,2.40458015 C15.2362205,2.22137405 15.1417323,2.12977099 14.9291339,2.10687023 C13.9606299,2.01526718 12.9685039,1.90076336 12,1.78625954 C11.9055118,1.78625954 11.8110236,1.74045802 11.7401575,1.71755725 C11.7401575,1.71755725 11.7401575,1.67175573 11.7401575,1.64885496 Z" id="Shape" fill="#FFFFFF"></path>
                    <path d="M13.7244094,6.04580153 C13.1574803,5.95419847 12.6614173,5.90839695 12.1653543,5.81679389 C11.9291339,5.77099237 11.7637795,5.83969466 11.6220472,6.02290076 C11.1496063,6.61832061 10.6771654,7.21374046 10.1811024,7.78625954 C10.1102362,7.85496183 10.015748,7.90076336 9.92125984,7.94656489 C9.92125984,7.83206107 9.8976378,7.71755725 9.94488189,7.6259542 C10.2755906,7.00763359 10.6299213,6.41221374 10.984252,5.79389313 C11.1259843,5.5648855 11.1259843,5.40458015 10.9133858,5.19847328 C10.2283465,4.53435115 9.54330709,3.84732824 8.88188976,3.18320611 C8.81102362,3.11450382 8.76377953,2.97709924 8.71653543,2.88549618 C8.83464567,2.93129771 8.95275591,2.97709924 9.04724409,3.04580153 C9.87401575,3.73282443 10.7007874,4.41984733 11.5275591,5.08396947 C11.7165354,5.22137405 11.9527559,5.33587786 12.1653543,5.40458015 C12.6614173,5.54198473 13.1811024,5.63358779 13.6771654,5.7480916 C13.7480315,5.77099237 13.7952756,5.83969466 13.8661417,5.90839695 C13.8188976,5.97709924 13.7480315,6.02290076 13.7244094,6.04580153 Z" id="Shape" fill="#FFFFFF"></path>
                    <path d="M24.4724409,2.99654671 C24.3779528,3.02108324 24.2598425,3.04561977 24.1653543,3.04561977 C23.1732283,3.07015631 22.1574803,3.11922937 21.1653543,3.1437659 C20.8110236,3.1437659 20.6929134,3.26644856 20.6220472,3.60996001 C20.5748031,3.8307888 20.5748031,4.02708106 20.503937,4.24790985 C20.480315,4.34605598 20.4094488,4.41966558 20.3385827,4.5178117 C20.2913386,4.41966558 20.2204724,4.34605598 20.2204724,4.24790985 C20.1968504,3.9043984 20.2204724,3.56088695 20.1732283,3.2173755 C20.1496063,3.09469284 20.0551181,2.92293711 19.9370079,2.84932752 C19.6535433,2.62849873 19.3700787,2.43220647 19.0866142,2.23591421 C19.0393701,2.18684115 19.015748,2.11323155 18.9685039,2.03962196 C19.0629921,2.03962196 19.1574803,1.99054889 19.2047244,2.03962196 C19.5354331,2.21137768 19.8425197,2.40766994 20.1732283,2.55488913 C20.480315,2.67757179 20.7874016,2.77571792 21.1181102,2.80025445 C22.1338583,2.84932752 23.1259843,2.84932752 24.1417323,2.84932752 C24.2362205,2.84932752 24.3307087,2.89840058 24.4488189,2.89840058 C24.4724409,2.94747365 24.4724409,2.97201018 24.4724409,2.99654671 Z" id="Shape" fill="#FFFFFF"></path>
                </g>
            </g>
        </g>
    </g>
</svg>