<?xml version="1.0" encoding="UTF-8"?>
<svg width="185px" height="45px" viewBox="0 0 185 45" version="1.1" xmlns="http://www.w3.org/2000/svg" xmlns:xlink="http://www.w3.org/1999/xlink">
    <!-- Generator: Sketch 47.1 (45422) - http://www.bohemiancoding.com/sketch -->
    <title>wagon</title>
    <desc>Created with Sketch.</desc>
    <defs></defs>
    <g id="Page-1" stroke="none" stroke-width="1" fill="none" fill-rule="evenodd">
        <g id="wagon">
            <g id="Group-2" transform="translate(50.000000, 10.000000)" fill="#FFFFFF">
                <g id="Group">
                    <path d="M4.35386783,11.8545673 C3.67678111,11.8545673 3.08433912,11.7746402 2.57652408,11.6147837 C2.06870904,11.4549271 1.63721148,11.234777 1.28201844,10.9543269 C0.92682541,10.6738768 0.643785207,10.3387439 0.432889344,9.94891827 C0.221993481,9.5590926 0.0776984759,9.13141258 0,8.66586538 L1.92302766,8.66586538 C1.98962636,8.95192451 2.086748,9.21834812 2.21439549,9.46514423 C2.34204299,9.71194034 2.50437487,9.92648146 2.701396,10.108774 C2.89841714,10.2910666 3.13150907,10.434094 3.40067879,10.5378606 C3.66984851,10.6416271 3.9820252,10.6935096 4.33721824,10.6935096 C4.57031367,10.6935096 4.80201814,10.6682695 5.03233863,10.6177885 C5.26265911,10.5673074 5.46938945,10.4845759 5.65253586,10.3695913 C5.83568227,10.2546068 5.98275218,10.1059705 6.09375,9.92367788 C6.20474782,9.74138531 6.2602459,9.51562635 6.2602459,9.24639423 C6.2602459,8.90985409 6.17422388,8.60977696 6.00217725,8.34615385 C5.83013063,8.08253073 5.60258851,7.84274948 5.31954406,7.62680288 C5.03649961,7.41085629 4.71461075,7.21033746 4.35386783,7.02524038 C3.9931249,6.84014331 3.62406268,6.65364677 3.24667008,6.46574519 C2.86927748,6.27784361 2.50021526,6.08012924 2.13947234,5.87259615 C1.77872941,5.66506306 1.45684055,5.43369519 1.17379611,5.17848558 C0.890751659,4.92327597 0.663209535,4.63441668 0.49116291,4.31189904 C0.319116285,3.9893814 0.233094262,3.62059502 0.233094262,3.20552885 C0.233094262,2.75119965 0.331603352,2.33193301 0.528624488,1.94771635 C0.725645623,1.56349968 1.01007328,1.22976904 1.38191598,0.946514423 C1.75375869,0.663259802 2.20884294,0.44170753 2.74718238,0.281850962 C3.28552182,0.121994393 3.89877559,0.0420673077 4.58696209,0.0420673077 C5.15305099,0.0420673077 5.66640822,0.120592163 6.12704918,0.277644231 C6.58769014,0.434696298 6.99421357,0.652041881 7.34663166,0.9296875 C7.69904975,1.20733312 7.99457702,1.53265038 8.23322234,1.90564904 C8.47186765,2.2786477 8.65501132,2.67828312 8.78265881,3.10456731 L7.04277664,3.10456731 C6.9428786,2.83533519 6.82633263,2.57732495 6.69313525,2.33052885 C6.55993786,2.08373274 6.39621853,1.86778939 6.20197234,1.68269231 C6.00772615,1.49759523 5.77185931,1.35036112 5.49436475,1.24098558 C5.2168702,1.13161003 4.88665663,1.07692308 4.50371414,1.07692308 C4.14297122,1.07692308 3.83911923,1.12459888 3.59214908,1.21995192 C3.34517892,1.31530496 3.14677329,1.43729894 2.99692623,1.5859375 C2.84707917,1.73457606 2.73885791,1.90003915 2.67225922,2.08233173 C2.60566053,2.26462431 2.57236168,2.44270746 2.57236168,2.61658654 C2.57236168,2.91947267 2.66115861,3.19430966 2.83875512,3.44110577 C3.01635164,3.68790187 3.25083102,3.91786752 3.54220031,4.13100962 C3.83356959,4.34415171 4.16517061,4.54747499 4.53701332,4.74098558 C4.90885603,4.93449616 5.28763041,5.12940607 5.67334785,5.32572115 C6.05906528,5.52203624 6.43783967,5.72816398 6.80968238,5.94411058 C7.18152508,6.16005717 7.5131261,6.39703397 7.80449539,6.65504808 C8.09586467,6.91306219 8.33034406,7.19911702 8.50794057,7.51322115 C8.68553709,7.82732529 8.77433402,8.18068714 8.77433402,8.57331731 C8.77433402,9.03886451 8.67998728,9.47075121 8.49129098,9.86899038 C8.30259468,10.2672296 8.02232939,10.6135803 7.65048668,10.9080529 C7.27864397,11.2025255 6.81662247,11.4338934 6.2644083,11.6021635 C5.71219413,11.7704335 5.07535368,11.8545673 4.35386783,11.8545673 Z M16.6912141,0.0420673077 L21.9857838,11.6862981 L19.1553535,11.6862981 L17.7401383,8.57331731 L13.3529713,8.57331731 L11.8711578,11.6862981 L9.9897541,11.6862981 L15.4924436,0.0420673077 L16.6912141,0.0420673077 Z M13.8774334,7.51322115 L17.2739498,7.51322115 L15.600666,3.828125 L13.8774334,7.51322115 Z M23.5674949,0.277644231 L26.3396516,0.277644231 L26.3396516,7.61418269 C26.3396516,8.05168488 26.4076368,8.46394037 26.5436091,8.85096154 C26.6795815,9.2379827 26.8738247,9.57592003 27.1263448,9.86478365 C27.3788648,10.1536473 27.6841043,10.3822107 28.0420722,10.5504808 C28.4000402,10.7187508 28.8037887,10.8028846 29.2533299,10.8028846 C29.6917713,10.8028846 30.0885826,10.7187508 30.4437756,10.5504808 C30.7989686,10.3822107 31.1014332,10.1536473 31.3511783,9.86478365 C31.6009234,9.57592003 31.7937792,9.2379827 31.9297515,8.85096154 C32.0657239,8.46394037 32.133709,8.05168488 32.133709,7.61418269 L32.133709,0.277644231 L33.881916,0.277644231 L33.881916,7.61418269 C33.881916,8.20312794 33.7834069,8.75981308 33.5863858,9.28425481 C33.3893646,9.80869653 33.0799628,10.2672256 32.6581711,10.6598558 C32.2363794,11.0524859 31.6952731,11.3637809 31.0348361,11.59375 C30.374399,11.8237191 29.5807765,11.9387019 28.6539447,11.9387019 C27.8270109,11.9387019 27.0958237,11.8237191 26.4603612,11.59375 C25.8248986,11.3637809 25.2935045,11.0510837 24.8661629,10.655649 C24.4388213,10.2602144 24.115545,9.79888084 23.8963243,9.27163462 C23.6771036,8.74438839 23.5674949,8.18349656 23.5674949,7.58894231 L23.5674949,0.277644231 Z M36.7123463,0.277644231 L38.4855277,0.277644231 L44.9205943,7.53004808 L44.9205943,0.277644231 L46.6521516,0.277644231 L46.6521516,11.8545673 L45.4617059,11.8545673 L38.4688781,3.84495192 L38.4688781,11.6862981 L36.7123463,11.6862981 L36.7123463,0.277644231 Z M54.885374,0.0420673077 L60.1799436,11.6862981 L57.3495133,11.6862981 L55.9342982,8.57331731 L51.5471311,8.57331731 L50.0653176,11.6862981 L48.1839139,11.6862981 L53.6866035,0.0420673077 L54.885374,0.0420673077 Z M52.0715932,7.51322115 L55.4681096,7.51322115 L53.7948258,3.828125 L52.0715932,7.51322115 Z M63.2184939,0.277644231 L66.0822234,7.64783654 L68.9542777,0.151442308 L71.8513064,7.61418269 L74.6484375,0.277644231 L76.496542,0.277644231 L72.0594262,11.8545673 L70.8023822,11.8545673 L68.4880891,5.90625 L66.2154201,11.8545673 L64.958376,11.8545673 L60.4296875,0.277644231 L63.2184939,0.277644231 Z M83.3977971,0.0420673077 L88.6923668,11.6862981 L85.8619365,11.6862981 L84.4467213,8.57331731 L80.0595543,8.57331731 L78.5777408,11.6862981 L76.6963371,11.6862981 L82.1990266,0.0420673077 L83.3977971,0.0420673077 Z M80.5840164,7.51322115 L83.9805328,7.51322115 L82.307249,3.828125 L80.5840164,7.51322115 Z M97.1836578,6.125 L101.870517,6.125 L101.870517,10.5168269 C101.509774,10.713142 101.149037,10.8926274 100.788294,11.0552885 C100.427551,11.2179495 100.041839,11.3581725 99.6311475,11.4759615 C99.2204556,11.5937506 98.7723086,11.6862977 98.2866931,11.7536058 C97.8010777,11.8209138 97.255809,11.8545673 96.6508709,11.8545673 C95.67964,11.8545673 94.7847334,11.7171488 93.9661245,11.4423077 C93.1475155,11.1674666 92.439915,10.7804512 91.8433017,10.28125 C91.2466884,9.78204879 90.781892,9.17909007 90.4488986,8.47235577 C90.1159051,7.76562147 89.9494109,6.98317737 89.9494109,6.125 C89.9494109,5.21634161 90.1159051,4.38622171 90.4488986,3.63461538 C90.781892,2.88300906 91.245301,2.23798346 91.8391393,1.69951923 C92.4329777,1.161055 93.1391907,0.743190589 93.9577997,0.445913462 C94.7764086,0.148636334 95.6713152,0 96.6425461,0 C97.2141849,0 97.7650033,0.0785248558 98.2950179,0.235576923 C98.8250325,0.39262899 99.3148031,0.600158966 99.7643443,0.858173077 C100.213885,1.11618719 100.619021,1.41205763 100.979764,1.74579327 C101.340507,2.07952891 101.637422,2.42307516 101.870517,2.77644231 L100.73002,3.828125 C100.491375,3.48597585 100.241634,3.16907197 99.9807889,2.87740385 C99.7199441,2.58573572 99.4424537,2.33193217 99.1483094,2.11598558 C98.8541652,1.90003898 98.5392136,1.73036921 98.2034452,1.60697115 C97.8676768,1.4835731 97.5083267,1.421875 97.1253842,1.421875 C96.5426457,1.421875 96.0001519,1.52844445 95.4978868,1.74158654 C94.9956216,1.95472863 94.5599617,2.26181691 94.190894,2.66286058 C93.8218262,3.06390425 93.5332362,3.55608683 93.3251153,4.13942308 C93.1169943,4.72275933 93.0129355,5.38461168 93.0129355,6.125 C93.0129355,6.86538832 93.1239316,7.5188273 93.3459273,8.08533654 C93.5679229,8.65184578 93.8703874,9.12860383 94.2533299,9.515625 C94.6362724,9.90264617 95.0844194,10.1957121 95.5977843,10.3948317 C96.1111493,10.5939513 96.6619677,10.6935096 97.2502561,10.6935096 C97.5998993,10.6935096 97.9301129,10.647236 98.2409068,10.5546875 C98.5517007,10.462139 98.8375158,10.3205138 99.0983607,10.1298077 L99.0983607,7.10096154 L97.1836578,7.10096154 L97.1836578,6.125 Z M110.753074,11.9387019 C109.842892,11.9387019 108.993771,11.7900656 108.205686,11.4927885 C107.417602,11.1955113 106.734976,10.7790492 106.157787,10.2433894 C105.580598,9.70772969 105.126901,9.07111747 104.796683,8.33353365 C104.466464,7.59594984 104.301358,6.78686338 104.301358,5.90625 C104.301358,5.04246363 104.466464,4.25020392 104.796683,3.52944712 C105.126901,2.80869031 105.580598,2.19030707 106.157787,1.67427885 C106.734976,1.15825063 107.417602,0.757212969 108.205686,0.471153846 C108.993771,0.185094724 109.842892,0.0420673077 110.753074,0.0420673077 C111.663256,0.0420673077 112.510989,0.186496953 113.296299,0.475360577 C114.081608,0.764224201 114.764235,1.16666409 115.344198,1.68269231 C115.924162,2.19872053 116.380634,2.81429931 116.713627,3.52944712 C117.046621,4.24459492 117.213115,5.02844125 117.213115,5.88100962 C117.213115,6.48678188 117.138192,7.05748931 116.988345,7.59314904 C116.838498,8.12880877 116.624831,8.62099135 116.347336,9.06971154 C116.069842,9.51843173 115.736853,9.91946939 115.348361,10.2728365 C114.959868,10.6262037 114.525596,10.9262808 114.04553,11.1730769 C113.565465,11.419873 113.047945,11.609174 112.492956,11.7409856 C111.937967,11.8727971 111.358012,11.9387019 110.753074,11.9387019 Z M110.753074,10.9795673 C111.302513,10.9795673 111.788121,10.8519644 112.209913,10.5967548 C112.631705,10.3415452 112.984117,9.98958558 113.267162,9.54086538 C113.550206,9.09214519 113.765261,8.55789573 113.912334,7.93810096 C114.059406,7.3183062 114.132941,6.64102931 114.132941,5.90625 C114.132941,5.18268869 114.059406,4.52083633 113.912334,3.92067308 C113.765261,3.32050982 113.550206,2.80448934 113.267162,2.37259615 C112.984117,1.94070297 112.631705,1.60416787 112.209913,1.36298077 C111.788121,1.12179367 111.302513,1.00120192 110.753074,1.00120192 C110.198085,1.00120192 109.709702,1.12179367 109.28791,1.36298077 C108.866118,1.60416787 108.513705,1.94070297 108.230661,2.37259615 C107.947616,2.80448934 107.733949,3.32050982 107.589652,3.92067308 C107.445354,4.52083633 107.373207,5.18268869 107.373207,5.90625 C107.373207,6.64102931 107.445354,7.3183062 107.589652,7.93810096 C107.733949,8.55789573 107.947616,9.09214519 108.230661,9.54086538 C108.513705,9.98958558 108.866118,10.3415452 109.28791,10.5967548 C109.709702,10.8519644 110.198085,10.9795673 110.753074,10.9795673 Z M119.693904,0.277644231 L121.467085,0.277644231 L127.902152,7.53004808 L127.902152,0.277644231 L129.633709,0.277644231 L129.633709,11.8545673 L128.443263,11.8545673 L121.450435,3.84495192 L121.450435,11.6862981 L119.693904,11.6862981 L119.693904,0.277644231 Z" id="SAUNAWAGON"></path>
                    <path d="M5.38302062,19.2826022 L5.38302062,19.6896034 L2.10981525,19.6896034 L2.10981525,21.9328425 L4.30131756,21.9328425 L4.30131756,22.3398437 L2.10981525,22.3398437 L2.10981525,25.1509916 L5.38302062,25.1509916 L5.38302062,25.5579928 L1.06557377,25.5579928 L1.06557377,19.2826022 L5.38302062,19.2826022 Z M6.82060867,20.7118389 L8.51574507,24.3795823 L10.140641,20.7118389 L10.5714492,20.7118389 L8.41272573,25.6100511 L8.08493692,25.6100511 L5.82319416,20.7118389 L6.82060867,20.7118389 Z M13.5168657,25.6621094 C13.1921971,25.6621094 12.8870444,25.6005866 12.6013984,25.4775391 C12.3157524,25.3544916 12.0667915,25.1872757 11.8545082,24.9758864 C11.6422249,24.7644971 11.4744299,24.5160396 11.3511182,24.2305063 C11.2278066,23.944973 11.1661517,23.6413027 11.1661517,23.3194862 C11.1661517,22.9314133 11.2223435,22.5725302 11.3347288,22.242826 C11.4471141,21.9131218 11.6063242,21.6283816 11.8123639,21.3885968 C12.0184036,21.1488119 12.2658037,20.9610884 12.5545714,20.8254207 C12.8433392,20.6897529 13.1656616,20.6219201 13.5215484,20.6219201 C13.8337298,20.6219201 14.1209323,20.6779216 14.3831647,20.7899264 C14.6453971,20.9019311 14.8709447,21.0517944 15.0598145,21.2395207 C15.2486842,21.427247 15.3954072,21.6441544 15.499988,21.8902494 C15.6045688,22.1363444 15.6568584,22.3934782 15.6568584,22.6616587 L12.0839604,22.6616587 C12.0839604,22.9866302 12.1253238,23.2879343 12.2080518,23.5655799 C12.2907799,23.8432255 12.4070657,24.0830068 12.5569128,24.2849309 C12.7067598,24.486855 12.8847006,24.6446058 13.0907403,24.7581881 C13.29678,24.8717704 13.5231081,24.9285607 13.7697314,24.9285607 C13.9757711,24.9285607 14.1740033,24.8946443 14.3644339,24.8268104 C14.5548646,24.7589765 14.7273422,24.6698473 14.881872,24.5594201 C15.0364017,24.4489928 15.1682964,24.3227922 15.2775599,24.1808143 C15.3868234,24.0388364 15.4633066,23.8921282 15.507012,23.7406851 L15.7832912,23.863732 C15.7146113,24.112982 15.6037885,24.3464532 15.4508197,24.5641526 C15.2978508,24.7818521 15.1191296,24.9719418 14.9146508,25.1344276 C14.710172,25.2969134 14.4877461,25.4254803 14.2473665,25.5201322 C14.0069868,25.6147841 13.763489,25.6621094 13.5168657,25.6621094 Z M14.4627706,22.2735877 C14.4627706,22.090594 14.4307724,21.9202231 14.3667753,21.76247 C14.3027781,21.6047168 14.2145882,21.4682623 14.1022029,21.3531025 C13.9898176,21.2379426 13.8587034,21.1472359 13.7088563,21.0809796 C13.5590092,21.0147232 13.3982382,20.9815956 13.2265385,20.9815956 C13.0829351,20.9815956 12.9455773,21.0139345 12.8144611,21.0786133 C12.683345,21.1432921 12.5662787,21.2332101 12.4632588,21.3483699 C12.360239,21.4635297 12.2751708,21.5999842 12.2080518,21.7577374 C12.1409328,21.9154906 12.1011303,22.0858615 12.0886431,22.2688552 L14.4627706,22.2735877 Z M17.8202645,20.6219201 L18.0918609,20.6219201 L18.0918609,21.6015625 C18.3821896,21.2734359 18.6834401,21.0281333 18.9956215,20.8656475 C19.3078029,20.7031617 19.6246622,20.6219201 19.946209,20.6219201 C20.114787,20.6219201 20.2716557,20.6597803 20.4168201,20.7355018 C20.5619844,20.8112233 20.6891964,20.9153389 20.7984599,21.0478516 C20.9077234,21.1803642 20.993572,21.3357488 21.0560083,21.5140099 C21.1184445,21.692271 21.1496622,21.8823608 21.1496622,22.0842849 L21.1496622,25.5579928 L20.1990747,25.5579928 L20.1990747,22.2499249 C20.1990747,22.0890166 20.1803441,21.9478296 20.1428823,21.8263597 C20.1054205,21.7048897 20.0523505,21.6031404 19.9836706,21.5211088 C19.9149907,21.4390771 19.8346052,21.3767655 19.7425117,21.3341722 C19.6504182,21.2915788 19.5481803,21.2702825 19.435795,21.2702825 C19.335897,21.2702825 19.2297569,21.287635 19.1173716,21.3223407 C19.0049863,21.3570464 18.8902614,21.4051604 18.7731934,21.4666842 C18.6561253,21.5282079 18.5398395,21.6015621 18.4243324,21.6867488 C18.3088253,21.7719355 18.1980026,21.866586 18.0918609,21.9707031 L18.0918609,25.5579928 L17.1365907,25.5579928 L17.1365907,20.8916767 L17.8202645,20.6219201 Z M23.8422131,19.0649038 L24.1138096,19.0649038 L24.1138096,20.7118389 L25.1814645,20.7118389 L25.1814645,21.1235727 L24.1138096,21.1235727 L24.1138096,24.5357572 C24.1138096,24.6083237 24.1270771,24.6761565 24.1536125,24.7392578 C24.1801479,24.8023591 24.2160482,24.8575719 24.2613145,24.9048978 C24.3065808,24.9522238 24.3604313,24.9892952 24.4228676,25.0161133 C24.4853038,25.0429313 24.5539827,25.0563401 24.6289062,25.0563401 C24.7350479,25.0563401 24.8318227,25.0295225 24.9192335,24.9758864 C25.0066443,24.9222503 25.0831276,24.855995 25.1486856,24.7771184 L25.3875032,24.9380258 C25.256387,25.1620354 25.0862507,25.3387163 24.8770892,25.4680739 C24.6679277,25.5974315 24.408821,25.6621094 24.0997615,25.6621094 C23.940549,25.6621094 23.8016303,25.634503 23.6830014,25.5792894 C23.5643725,25.5240757 23.4668173,25.4467778 23.3903328,25.3473933 C23.3138484,25.2480088 23.2568761,25.1296957 23.2194144,24.9924504 C23.1819526,24.8552051 23.163222,24.7029756 23.163222,24.5357572 L23.163222,21.1235727 L22.3297019,21.1235727 L22.3297019,20.943735 L23.163222,20.7118389 L23.163222,19.3346605 L23.8422131,19.0649038 Z M28.0894195,25.3260968 C28.2174139,25.3260968 28.336041,25.3063779 28.4453045,25.2669396 C28.554568,25.2275013 28.6490014,25.1746548 28.7286077,25.1083984 C28.8082139,25.0421421 28.8698688,24.9656329 28.9135742,24.8788687 C28.9572796,24.7921044 28.979132,24.7029752 28.979132,24.6114784 C28.979132,24.4631904 28.9424512,24.3338347 28.8690886,24.2234075 C28.795726,24.1129802 28.6989512,24.014386 28.5787614,23.9276217 C28.4585715,23.8408574 28.3219942,23.7611933 28.1690254,23.6886268 C28.0160565,23.6160603 27.8599681,23.5411287 27.7007556,23.4638296 C27.5415431,23.3865306 27.3854548,23.3045001 27.2324859,23.2177359 C27.079517,23.1309716 26.9429397,23.0292223 26.8227499,22.912485 C26.7025601,22.7957476 26.6057853,22.6608707 26.5324227,22.5078501 C26.4590601,22.3548295 26.4223793,22.1757823 26.4223793,21.9707031 C26.4223793,21.7782442 26.4629623,21.599197 26.5441294,21.4335562 C26.6252966,21.2679153 26.7384606,21.1251508 26.883625,21.0052584 C27.0287893,20.885366 27.2012669,20.7915042 27.401063,20.7236704 C27.6008591,20.6558365 27.8193828,20.6219201 28.0566406,20.6219201 C28.2158531,20.6219201 28.3641371,20.6329626 28.5014969,20.6550481 C28.6388567,20.6771335 28.7738731,20.7197262 28.9065502,20.7828275 C29.0392273,20.8459288 29.1711219,20.9366355 29.3022381,21.0549504 C29.4333543,21.1732653 29.5722729,21.3270724 29.7189981,21.5163762 L29.3677959,21.8334585 C29.1867307,21.5337275 28.9845962,21.31051 28.7613866,21.1637996 C28.5381769,21.0170891 28.3001421,20.943735 28.0472752,20.943735 C27.9099154,20.943735 27.7850447,20.9602988 27.6726595,20.993427 C27.5602742,21.0265552 27.4642798,21.0723029 27.3846736,21.1306716 C27.3050673,21.1890403 27.242632,21.2576619 27.1973657,21.3365385 C27.1520994,21.4154151 27.1294666,21.499023 27.1294666,21.5873648 C27.1294666,21.7324977 27.1692691,21.8586984 27.2488754,21.9659706 C27.3284816,22.0732427 27.4338412,22.1702595 27.5649574,22.2570237 C27.6960736,22.343788 27.845138,22.4234522 28.012155,22.4960186 C28.179172,22.5685851 28.3493083,22.642728 28.522569,22.7184495 C28.6958297,22.7941711 28.865966,22.8762015 29.032983,22.9645433 C29.2,23.0528851 29.3490644,23.1546343 29.4801806,23.2697942 C29.6112968,23.384954 29.7166564,23.5182534 29.7962626,23.6696965 C29.8758689,23.8211396 29.9156714,23.9978205 29.9156714,24.1997446 C29.9156714,24.4048237 29.8782102,24.596491 29.8032867,24.7747521 C29.7283632,24.9530132 29.6151991,25.107609 29.4637911,25.2385442 C29.3123832,25.3694793 29.1227358,25.4728061 28.8948434,25.5485276 C28.666951,25.6242492 28.3984791,25.6621094 28.0894195,25.6621094 C27.9489379,25.6621094 27.8045562,25.6510668 27.65627,25.6289814 C27.5079839,25.6068959 27.3589195,25.5635144 27.2090724,25.4988356 C27.0592254,25.4341568 26.9093806,25.3434501 26.7595335,25.2267127 C26.6096864,25.1099754 26.4629634,24.9569571 26.31936,24.7676532 L26.7080238,24.4127103 C26.8235309,24.5767737 26.9343537,24.7163831 27.0404953,24.831543 C27.146637,24.9467028 27.2551184,25.0413533 27.3659428,25.1154973 C27.4767672,25.1896413 27.5907117,25.2432766 27.7077797,25.2764047 C27.8248477,25.3095329 27.9520597,25.3260968 28.0894195,25.3260968 Z M34.7669458,22.4439603 C34.6108551,22.5354572 34.4664734,22.6364177 34.3337963,22.746845 C34.2011192,22.8572722 34.0863942,22.9747966 33.989618,23.0994216 C33.8928418,23.2240466 33.8171389,23.3557685 33.7625072,23.4945913 C33.7078755,23.6334142 33.68056,23.7785449 33.68056,23.929988 C33.68056,24.1003614 33.7078755,24.2596898 33.7625072,24.4079778 C33.8171389,24.5562658 33.8944027,24.6848327 33.9943007,24.7936824 C34.0941988,24.9025321 34.2167281,24.9885063 34.3618925,25.0516076 C34.5070568,25.1147088 34.6701691,25.146259 34.8512343,25.146259 C35.0978576,25.146259 35.3327706,25.0910462 35.5559802,24.980619 C35.7791899,24.8701918 35.9922505,24.734526 36.1951684,24.5736178 C36.0546868,24.4190197 35.9196704,24.2549588 35.7901151,24.0814303 C35.6605598,23.9079018 35.5364696,23.7304321 35.4178407,23.5490159 C35.2992118,23.3675998 35.1860477,23.1830313 35.0783451,22.995305 C34.9706426,22.8075787 34.8668438,22.623799 34.7669458,22.4439603 Z M35.4412542,21.7482722 C35.6035885,21.6630855 35.7549942,21.574745 35.8954758,21.4832482 C36.0359574,21.3917513 36.1584868,21.2931571 36.2630675,21.1874624 C36.3676483,21.0817678 36.4495947,20.9650322 36.5089091,20.8372521 C36.5682236,20.709472 36.5978804,20.568285 36.5978804,20.4136869 C36.5978804,20.2622438 36.5783693,20.1273669 36.5393467,20.009052 C36.500324,19.8907371 36.447254,19.7897766 36.380135,19.7061674 C36.313016,19.6225582 36.2349718,19.5586691 36.1460001,19.5144982 C36.0570284,19.4703273 35.9610341,19.4482422 35.8580142,19.4482422 C35.7425071,19.4482422 35.636367,19.4782148 35.5395908,19.5381611 C35.4428146,19.5981073 35.3593073,19.6761939 35.2890665,19.7724234 C35.2188257,19.8686528 35.1634143,19.9759234 35.1228308,20.0942383 C35.0822472,20.2125532 35.0619557,20.3300775 35.0619557,20.4468149 C35.0619557,20.6361187 35.0955147,20.8443498 35.1626337,21.0715144 C35.2297527,21.298679 35.3226252,21.5242627 35.4412542,21.7482722 Z M38.1619013,22.1742037 C38.1244395,22.3982133 38.0783934,22.5985568 38.0237617,22.7752404 C37.9691299,22.951924 37.9035728,23.1183511 37.8270884,23.2745267 C37.750604,23.4307024 37.6616336,23.582932 37.5601747,23.73122 C37.4587157,23.879508 37.3439908,24.0356813 37.2159964,24.1997446 C37.4563761,24.4458396 37.6834846,24.6406618 37.8973289,24.7842172 C38.1111731,24.9277727 38.3086249,24.9995493 38.4896901,24.9995493 C38.7238261,24.9995493 38.9236192,24.9530128 39.0890753,24.8599384 C39.2545314,24.766864 39.3872065,24.6020144 39.4871046,24.3653846 L39.6650471,24.4316406 C39.6244635,24.6367198 39.5581259,24.8181332 39.4660324,24.9758864 C39.3739389,25.1336396 39.2607749,25.2669391 39.1265369,25.3757888 C38.9922989,25.4846385 38.8393323,25.5666689 38.6676326,25.6218825 C38.4959328,25.6770961 38.3101877,25.7047025 38.1103916,25.7047025 C37.8544029,25.7047025 37.591394,25.6313484 37.3213571,25.4846379 C37.0513202,25.3379275 36.7867505,25.1415277 36.5276399,24.8954327 C36.2217022,25.1352175 35.8884536,25.3300398 35.5278841,25.4799053 C35.1673146,25.6297709 34.7778741,25.7047025 34.3595511,25.7047025 C34.0661006,25.7047025 33.8163593,25.6715749 33.6103195,25.6053185 C33.4042798,25.5390622 33.2357044,25.4459892 33.1045882,25.3260968 C32.9734721,25.2062043 32.8774777,25.0626511 32.8166024,24.8954327 C32.755727,24.7282143 32.7252898,24.5436458 32.7252898,24.3417218 C32.7252898,24.0546109 32.7791402,23.7998434 32.8868428,23.5774114 C32.9945454,23.3549794 33.1365858,23.1554246 33.3129683,22.978741 C33.4893507,22.8020574 33.6899243,22.6450953 33.9146949,22.5078501 C34.1394655,22.3706048 34.3704762,22.2436154 34.6077341,22.126878 C34.4766179,21.8492324 34.3728191,21.593676 34.2963347,21.3602013 C34.2198503,21.1267266 34.1816086,20.9295381 34.1816086,20.7686298 C34.1816086,20.5603956 34.2151676,20.3584745 34.2822866,20.1628606 C34.3494056,19.9672466 34.450863,19.7937207 34.5866619,19.6422776 C34.7224608,19.4908346 34.8918167,19.3693664 35.0947346,19.2778696 C35.2976525,19.1863727 35.5333459,19.140625 35.8018218,19.140625 C36.0016179,19.140625 36.1897044,19.1698089 36.3660869,19.2281776 C36.5424693,19.2865463 36.6962164,19.3717317 36.8273325,19.4837365 C36.9584487,19.5957412 37.0622475,19.7329845 37.1387319,19.8954703 C37.2152163,20.057956 37.253458,20.2417358 37.253458,20.4468149 C37.253458,20.6518941 37.2050706,20.83173 37.1082944,20.9863281 C37.0115182,21.1409263 36.8850866,21.279747 36.7289959,21.4027945 C36.5729052,21.525842 36.3957449,21.637845 36.1975098,21.7388071 C35.9992746,21.8397691 35.7987011,21.9391522 35.5957832,22.0369591 C35.7581175,22.3493105 35.9540084,22.6592908 36.1834617,22.9669096 C36.412915,23.2745283 36.660315,23.5766211 36.9256692,23.8731971 C37.2347287,23.51983 37.4665199,23.1932858 37.6210497,22.8935547 C37.7755795,22.5938236 37.8778174,22.3319572 37.9277664,22.1079477 L38.1619013,22.1742037 Z M42.7837234,19.2826022 L45.1297547,24.2754657 L47.307209,19.2826022 L47.8035749,19.2826022 L44.9845911,25.7047025 L44.7129947,25.7047025 L41.6832896,19.2826022 L42.7837234,19.2826022 Z M50.6927991,25.6621094 C50.3681304,25.6621094 50.0629777,25.6005866 49.7773317,25.4775391 C49.4916858,25.3544916 49.2427249,25.1872757 49.0304415,24.9758864 C48.8181582,24.7644971 48.6503632,24.5160396 48.5270516,24.2305063 C48.4037399,23.944973 48.342085,23.6413027 48.342085,23.3194862 C48.342085,22.9314133 48.3982768,22.5725302 48.5106621,22.242826 C48.6230474,21.9131218 48.7822576,21.6283816 48.9882973,21.3885968 C49.194337,21.1488119 49.441737,20.9610884 49.7305048,20.8254207 C50.0192725,20.6897529 50.341595,20.6219201 50.6974817,20.6219201 C51.0096631,20.6219201 51.2968657,20.6779216 51.559098,20.7899264 C51.8213304,20.9019311 52.0468781,21.0517944 52.2357478,21.2395207 C52.4246175,21.427247 52.5713406,21.6441544 52.6759213,21.8902494 C52.7805021,22.1363444 52.8327917,22.3934782 52.8327917,22.6616587 L49.2598937,22.6616587 C49.2598937,22.9866302 49.3012571,23.2879343 49.3839852,23.5655799 C49.4667132,23.8432255 49.5829991,24.0830068 49.7328461,24.2849309 C49.8826932,24.486855 50.0606339,24.6446058 50.2666736,24.7581881 C50.4727133,24.8717704 50.6990414,24.9285607 50.9456647,24.9285607 C51.1517044,24.9285607 51.3499366,24.8946443 51.5403673,24.8268104 C51.7307979,24.7589765 51.9032755,24.6698473 52.0578053,24.5594201 C52.2123351,24.4489928 52.3442297,24.3227922 52.4534932,24.1808143 C52.5627567,24.0388364 52.63924,23.8921282 52.6829454,23.7406851 L52.9592245,23.863732 C52.8905446,24.112982 52.7797219,24.3464532 52.626753,24.5641526 C52.4737841,24.7818521 52.295063,24.9719418 52.0905842,25.1344276 C51.8861054,25.2969134 51.6636795,25.4254803 51.4232998,25.5201322 C51.1829202,25.6147841 50.9394223,25.6621094 50.6927991,25.6621094 Z M51.6387039,22.2735877 C51.6387039,22.090594 51.6067058,21.9202231 51.5427086,21.76247 C51.4787114,21.6047168 51.3905215,21.4682623 51.2781362,21.3531025 C51.1657509,21.2379426 51.0346367,21.1472359 50.8847896,21.0809796 C50.7349426,21.0147232 50.5741716,20.9815956 50.4024718,20.9815956 C50.2588684,20.9815956 50.1215106,21.0139345 49.9903945,21.0786133 C49.8592783,21.1432921 49.742212,21.2332101 49.6391922,21.3483699 C49.5361723,21.4635297 49.4511042,21.5999842 49.3839852,21.7577374 C49.3168662,21.9154906 49.2770637,22.0858615 49.2645764,22.2688552 L51.6387039,22.2735877 Z M54.9915151,20.6219201 L55.1366787,20.6219201 L55.2631116,21.6110276 C55.3380351,21.4658947 55.4316881,21.333384 55.5440734,21.2134916 C55.6564587,21.0935992 55.7805489,20.9894836 55.9163478,20.9011418 C56.0521467,20.8128 56.195748,20.7441784 56.347156,20.6952749 C56.4985639,20.6463715 56.652311,20.6219201 56.8084016,20.6219201 C56.9488833,20.6219201 57.0870214,20.6408502 57.2228203,20.6787109 C57.3586192,20.7165717 57.4858312,20.776517 57.6044602,20.8585487 L57.3047675,21.6678185 C57.2423313,21.5984071 57.1767742,21.5424056 57.1080943,21.4998122 C57.0394144,21.4572188 56.9691746,21.4240912 56.8973729,21.4004282 C56.8255712,21.3767652 56.7522096,21.3617789 56.6772861,21.3554687 C56.6023626,21.3491586 56.5274402,21.3460036 56.4525166,21.3460036 C56.3338877,21.3460036 56.2176019,21.3633562 56.1036557,21.3980619 C55.9897095,21.4327676 55.8812281,21.4840366 55.7782082,21.5518705 C55.6751884,21.6197044 55.5799745,21.7064673 55.4925637,21.812162 C55.4051529,21.9178566 55.3286696,22.041691 55.2631116,22.1836689 L55.2631116,25.5579928 L54.312524,25.5579928 L54.312524,20.8869441 L54.9915151,20.6219201 Z M59.1403849,20.6219201 L59.4119813,20.6219201 L59.4119813,21.6252254 C59.533732,21.4927127 59.6710898,21.3657233 59.8240587,21.2442533 C59.9770275,21.1227833 60.1346768,21.0155128 60.2970111,20.9224384 C60.4593454,20.829364 60.6216773,20.7560099 60.7840116,20.7023738 C60.9463459,20.6487377 61.1008734,20.6219201 61.2475986,20.6219201 C61.3880802,20.6219201 61.5309011,20.6471602 61.6760654,20.6976412 C61.8212298,20.7481222 61.9554657,20.8191101 62.0787774,20.910607 C62.202089,21.0021038 62.3082291,21.1101631 62.3972008,21.2347882 C62.4861725,21.3594132 62.5447056,21.4958676 62.5728019,21.6441556 C62.6508473,21.5021778 62.7593287,21.3688783 62.8982494,21.2442533 C63.0371701,21.1196283 63.1909171,21.011569 63.3594951,20.9200721 C63.528073,20.8285753 63.7067942,20.7560099 63.8956639,20.7023738 C64.0845336,20.6487377 64.2694983,20.6219201 64.4505635,20.6219201 C64.6316287,20.6219201 64.8009846,20.6621465 64.9586362,20.7426007 C65.1162878,20.8230548 65.254426,20.9319029 65.3730549,21.0691481 C65.4916838,21.2063934 65.5853368,21.3672993 65.6540167,21.5518705 C65.7226966,21.7364417 65.7570361,21.9328415 65.7570361,22.1410757 L65.7570361,25.5579928 L64.8064485,25.5579928 L64.8064485,22.2735877 C64.8064485,22.13792 64.7838157,22.0093531 64.7385494,21.8878831 C64.6932831,21.7664132 64.6316282,21.6599313 64.5535829,21.5684345 C64.4755375,21.4769376 64.3842258,21.4043723 64.2796451,21.3507362 C64.1750643,21.2971001 64.065022,21.2702825 63.9495149,21.2702825 C63.8183987,21.2702825 63.6849432,21.2884238 63.5491443,21.324707 C63.4133454,21.3609903 63.2845725,21.4106818 63.1628218,21.4737831 C63.041071,21.5368843 62.9302483,21.6102385 62.8303503,21.6938477 C62.7304522,21.7774568 62.6508472,21.8665861 62.5915327,21.961238 L62.5915327,25.5579928 L61.6409452,25.5579928 L61.6409452,22.2735877 C61.6409452,22.13792 61.6175319,22.0093531 61.5707047,21.8878831 C61.5238775,21.7664132 61.4614422,21.6599313 61.3833968,21.5684345 C61.3053515,21.4769376 61.2132594,21.4043723 61.1071177,21.3507362 C61.000976,21.2971001 60.8901533,21.2702825 60.7746462,21.2702825 C60.6528955,21.2702825 60.5272443,21.2892126 60.3976891,21.3270733 C60.2681338,21.3649341 60.1417022,21.4154143 60.0183906,21.4785156 C59.8950789,21.5416169 59.780354,21.614971 59.6742123,21.6985802 C59.5680707,21.7821894 59.4806612,21.8697411 59.4119813,21.961238 L59.4119813,25.5579928 L58.4567111,25.5579928 L58.4567111,20.8916767 L59.1403849,20.6219201 Z M67.5177302,20.8964093 L68.1873559,20.6219201 L68.4636351,20.6219201 L68.4636351,25.5579928 L67.5177302,25.5579928 L67.5177302,20.8964093 Z M67.4428071,18.8566707 C67.4428071,18.7809491 67.456855,18.7099613 67.4849513,18.6437049 C67.5130477,18.5774486 67.5520697,18.5190808 67.6020188,18.4685998 C67.6519678,18.4181187 67.7097205,18.378681 67.7752786,18.3502855 C67.8408366,18.3218899 67.9110764,18.3076923 67.9859999,18.3076923 C68.0609235,18.3076923 68.1311632,18.3218899 68.1967213,18.3502855 C68.2622794,18.378681 68.3200321,18.4181187 68.3699811,18.4685998 C68.4199301,18.5190808 68.4589522,18.5774486 68.4870485,18.6437049 C68.5151449,18.7099613 68.5291928,18.7809491 68.5291928,18.8566707 C68.5291928,18.9323922 68.5151449,19.0033801 68.4870485,19.0696364 C68.4589522,19.1358928 68.4199301,19.1942606 68.3699811,19.2447416 C68.3200321,19.2952226 68.2622794,19.3346603 68.1967213,19.3630559 C68.1311632,19.3914515 68.0609235,19.405649 67.9859999,19.405649 C67.9110764,19.405649 67.8408366,19.3914515 67.7752786,19.3630559 C67.7097205,19.3346603 67.6519678,19.2952226 67.6020188,19.2447416 C67.5520697,19.1942606 67.5130477,19.1358928 67.4849513,19.0696364 C67.456855,19.0033801 67.4428071,18.9323922 67.4428071,18.8566707 Z M72.2425717,25.6621094 C71.9179031,25.6621094 71.6127504,25.6005866 71.3271044,25.4775391 C71.0414585,25.3544916 70.7924975,25.1872757 70.5802142,24.9758864 C70.3679309,24.7644971 70.2001359,24.5160396 70.0768243,24.2305063 C69.9535126,23.944973 69.8918577,23.6413027 69.8918577,23.3194862 C69.8918577,22.9314133 69.9480495,22.5725302 70.0604348,22.242826 C70.1728201,21.9131218 70.3320302,21.6283816 70.5380699,21.3885968 C70.7441096,21.1488119 70.9915097,20.9610884 71.2802774,20.8254207 C71.5690452,20.6897529 71.8913676,20.6219201 72.2472544,20.6219201 C72.5594358,20.6219201 72.8466384,20.6779216 73.1088707,20.7899264 C73.3711031,20.9019311 73.5966507,21.0517944 73.7855205,21.2395207 C73.9743902,21.427247 74.1211132,21.6441544 74.225694,21.8902494 C74.3302748,22.1363444 74.3825644,22.3934782 74.3825644,22.6616587 L70.8096664,22.6616587 C70.8096664,22.9866302 70.8510298,23.2879343 70.9337578,23.5655799 C71.0164859,23.8432255 71.1327717,24.0830068 71.2826188,24.2849309 C71.4324658,24.486855 71.6104066,24.6446058 71.8164463,24.7581881 C72.022486,24.8717704 72.2488141,24.9285607 72.4954374,24.9285607 C72.7014771,24.9285607 72.8997093,24.8946443 73.0901399,24.8268104 C73.2805706,24.7589765 73.4530482,24.6698473 73.607578,24.5594201 C73.7621077,24.4489928 73.8940024,24.3227922 74.0032659,24.1808143 C74.1125294,24.0388364 74.1890127,23.8921282 74.232718,23.7406851 L74.5089972,23.863732 C74.4403173,24.112982 74.3294946,24.3464532 74.1765257,24.5641526 C74.0235568,24.7818521 73.8448356,24.9719418 73.6403568,25.1344276 C73.435878,25.2969134 73.2134521,25.4254803 72.9730725,25.5201322 C72.7326928,25.6147841 72.489195,25.6621094 72.2425717,25.6621094 Z M73.1884766,22.2735877 C73.1884766,22.090594 73.1564785,21.9202231 73.0924813,21.76247 C73.0284841,21.6047168 72.9402942,21.4682623 72.8279089,21.3531025 C72.7155236,21.2379426 72.5844094,21.1472359 72.4345623,21.0809796 C72.2847152,21.0147232 72.1239442,20.9815956 71.9522445,20.9815956 C71.8086411,20.9815956 71.6712833,21.0139345 71.5401671,21.0786133 C71.409051,21.1432921 71.2919847,21.2332101 71.1889648,21.3483699 C71.085945,21.4635297 71.0008768,21.5999842 70.9337578,21.7577374 C70.8666388,21.9154906 70.8268363,22.0858615 70.8143491,22.2688552 L73.1884766,22.2735877 Z M76.8690766,19.0649038 L77.140673,19.0649038 L77.140673,20.7118389 L78.208328,20.7118389 L78.208328,21.1235727 L77.140673,21.1235727 L77.140673,24.5357572 C77.140673,24.6083237 77.1539405,24.6761565 77.180476,24.7392578 C77.2070114,24.8023591 77.2429117,24.8575719 77.288178,24.9048978 C77.3334443,24.9522238 77.3872948,24.9892952 77.449731,25.0161133 C77.5121673,25.0429313 77.5808462,25.0563401 77.6557697,25.0563401 C77.7619114,25.0563401 77.8586862,25.0295225 77.946097,24.9758864 C78.0335077,24.9222503 78.109991,24.855995 78.1755491,24.7771184 L78.4143667,24.9380258 C78.2832505,25.1620354 78.1131142,25.3387163 77.9039527,25.4680739 C77.6947912,25.5974315 77.4356845,25.6621094 77.1266249,25.6621094 C76.9674124,25.6621094 76.8284938,25.634503 76.7098649,25.5792894 C76.591236,25.5240757 76.4936807,25.4467778 76.4171963,25.3473933 C76.3407119,25.2480088 76.2837396,25.1296957 76.2462779,24.9924504 C76.2088161,24.8552051 76.1900855,24.7029756 76.1900855,24.5357572 L76.1900855,21.1235727 L75.3565654,21.1235727 L75.3565654,20.943735 L76.1900855,20.7118389 L76.1900855,19.3346605 L76.8690766,19.0649038 Z M80.6245998,20.7118389 L80.6245998,24.161884 C80.6245998,24.2817764 80.6519152,24.395357 80.706547,24.5026292 C80.7611787,24.6099014 80.8368816,24.7029744 80.9336578,24.781851 C81.030434,24.8607276 81.1420372,24.9230391 81.2684706,24.9687876 C81.3949041,25.014536 81.5314814,25.0374099 81.6782066,25.0374099 C81.7718611,25.0374099 81.872538,25.0169022 81.9802406,24.9758864 C82.0879432,24.9348706 82.1933028,24.878869 82.2963227,24.8078801 C82.3993425,24.7368912 82.4953369,24.6532832 82.5843086,24.5570538 C82.6732803,24.4608243 82.7489831,24.3590751 82.8114194,24.2518029 L82.8114194,20.7118389 L83.7573242,20.7118389 L83.7573242,25.5579928 L82.8114194,25.5579928 L82.8114194,24.6493389 C82.7271304,24.7881618 82.6217708,24.9190949 82.4953373,25.0421424 C82.3689039,25.1651899 82.2323266,25.2724605 82.0856013,25.3639573 C81.9388761,25.4554542 81.7874704,25.5280196 81.6313797,25.5816556 C81.475289,25.6352917 81.3270051,25.6621094 81.1865234,25.6621094 C80.9773619,25.6621094 80.7806906,25.6226717 80.5965036,25.5437951 C80.4123166,25.4649185 80.2515456,25.3576479 80.1141858,25.2219802 C79.976826,25.0863124 79.8683446,24.9269841 79.7887383,24.7439904 C79.7091321,24.5609967 79.6693295,24.3669632 79.6693295,24.161884 L79.6693295,20.7118389 L80.6245998,20.7118389 Z M86.126769,20.6219201 L86.3983655,20.6219201 L86.3983655,21.6015625 C86.6886941,21.2734359 86.9899446,21.0281333 87.302126,20.8656475 C87.6143074,20.7031617 87.9311667,20.6219201 88.2527136,20.6219201 C88.4212915,20.6219201 88.5781603,20.6597803 88.7233246,20.7355018 C88.868489,20.8112233 88.995701,20.9153389 89.1049645,21.0478516 C89.2142279,21.1803642 89.3000765,21.3357488 89.3625128,21.5140099 C89.4249491,21.692271 89.4561668,21.8823608 89.4561668,22.0842849 L89.4561668,25.5579928 L88.5055792,25.5579928 L88.5055792,22.2499249 C88.5055792,22.0890166 88.4868486,21.9478296 88.4493868,21.8263597 C88.4119251,21.7048897 88.358855,21.6031404 88.2901751,21.5211088 C88.2214952,21.4390771 88.1411097,21.3767655 88.0490162,21.3341722 C87.9569227,21.2915788 87.8546849,21.2702825 87.7422996,21.2702825 C87.6424015,21.2702825 87.5362614,21.287635 87.4238762,21.3223407 C87.3114909,21.3570464 87.1967659,21.4051604 87.0796979,21.4666842 C86.9626299,21.5282079 86.8463441,21.6015621 86.730837,21.6867488 C86.6153299,21.7719355 86.5045071,21.866586 86.3983655,21.9707031 L86.3983655,25.5579928 L85.4430952,25.5579928 L85.4430952,20.8916767 L86.126769,20.6219201 Z M95.6560579,20.9673978 L95.6560579,21.374399 L94.7476146,21.374399 C94.8381472,21.5037567 94.9122892,21.6512537 94.9700427,21.8168945 C95.0277963,21.9825354 95.0566726,22.1458075 95.0566726,22.3067157 C95.0566726,22.5591209 95.0020417,22.7878596 94.8927782,22.9929387 C94.7835148,23.1980179 94.6313286,23.3746988 94.4362153,23.5229868 C94.2411019,23.6712748 94.0077498,23.7856441 93.736152,23.8660983 C93.4645542,23.9465524 93.1648646,23.9867788 92.8370742,23.9867788 C92.7153234,23.9867788 92.5912332,23.9773138 92.4647997,23.9583834 C92.3383663,23.939453 92.228324,23.9142129 92.1346696,23.8826623 C92.044137,23.9583838 91.9676537,24.0459355 91.9052174,24.14532 C91.8427811,24.2447045 91.8115635,24.3448763 91.8115635,24.4458383 C91.8115635,24.5436453 91.8638531,24.6209432 91.9684338,24.6777344 C92.0730146,24.7345255 92.222079,24.7676532 92.4156314,24.7771184 L94.185691,24.8575721 C94.469776,24.8701924 94.7062499,24.9041088 94.8951196,24.9593224 C95.0839893,25.014536 95.2346146,25.0886789 95.3469999,25.1817533 C95.4593852,25.2748277 95.5389902,25.3844645 95.5858174,25.5106671 C95.6326446,25.6368696 95.6560579,25.7788454 95.6560579,25.9365986 C95.6560579,26.2173992 95.5912812,26.4721668 95.461726,26.700909 C95.3321707,26.9296511 95.1456451,27.1244734 94.9021436,27.2853816 C94.6586422,27.4462899 94.3612939,27.570913 94.0100898,27.6592548 C93.6588858,27.7475966 93.2616409,27.7917668 92.8183434,27.7917668 C92.421873,27.7917668 92.0753569,27.7681042 91.7787846,27.7207782 C91.4822123,27.6734523 91.2355927,27.6064082 91.0389184,27.5196439 C90.8422441,27.4328797 90.6955211,27.3287641 90.5987449,27.2072942 C90.5019687,27.0858242 90.4535813,26.9493697 90.4535813,26.7979267 C90.4535813,26.665414 90.4863598,26.5384246 90.5519179,26.4169546 C90.617476,26.2954847 90.7017637,26.1787491 90.8047836,26.0667443 C90.9078034,25.9547395 91.0217479,25.8466802 91.1466205,25.7425631 C91.271493,25.638446 91.3948028,25.539063 91.5165535,25.4444111 C91.4291427,25.4160155 91.3471964,25.3820991 91.2707119,25.3426608 C91.1942275,25.3032225 91.1278899,25.2582635 91.0716973,25.2077825 C91.0155046,25.1573014 90.9717999,25.1028774 90.9405818,25.0445087 C90.9093636,24.98614 90.8937548,24.9238285 90.8937548,24.8575721 C90.8937548,24.7597651 90.9195094,24.6580159 90.9710193,24.5523212 C91.0225292,24.4466266 91.092769,24.345666 91.1817407,24.2494366 C91.2707124,24.1532072 91.3737307,24.0648667 91.4907987,23.9844126 C91.6078667,23.9039584 91.7335178,23.8400693 91.8677558,23.7927434 C91.546209,23.6539206 91.2941263,23.4606758 91.1115002,23.2130033 C90.9288741,22.9653308 90.8375624,22.6805906 90.8375624,22.358774 C90.8375624,22.1221442 90.8914129,21.8981381 90.9991155,21.6867488 C91.1068181,21.4753595 91.2558824,21.2907911 91.4463131,21.1330379 C91.6367437,20.9752847 91.8591696,20.8506615 92.1135974,20.7591647 C92.3680253,20.6676678 92.6435212,20.6219201 92.9400935,20.6219201 C93.0836969,20.6219201 93.2249569,20.6313851 93.3638776,20.6503155 C93.5027983,20.6692459 93.6323516,20.694486 93.7525415,20.7260367 C93.8727313,20.7575873 93.9788714,20.79387 94.0709649,20.8348858 C94.1630584,20.8759016 94.2356395,20.9200719 94.2887103,20.9673978 L95.6560579,20.9673978 Z M91.8115635,25.5201322 C91.7397617,25.5737683 91.6773264,25.6337136 91.6242556,25.69997 C91.5711847,25.7662263 91.5259191,25.8356367 91.4884574,25.9082031 C91.4509956,25.9807696 91.4228997,26.0541237 91.4041688,26.1282677 C91.3854379,26.2024117 91.3760726,26.2726108 91.3760726,26.3388672 C91.3760726,26.4461394 91.4135338,26.5486774 91.4884574,26.6464844 C91.5633809,26.7442914 91.6757645,26.8310543 91.8256116,26.9067758 C91.9754586,26.9824974 92.1635451,27.0424427 92.3898766,27.0866136 C92.6162081,27.1307845 92.8792169,27.1528696 93.1789111,27.1528696 C93.4973361,27.1528696 93.7821973,27.1276295 94.0335033,27.0771484 C94.2848093,27.0266674 94.4986503,26.9596233 94.6750328,26.8760141 C94.8514153,26.7924049 94.9856513,26.6993319 95.0777448,26.5967924 C95.1698383,26.4942528 95.2158843,26.390926 95.2158843,26.2868089 C95.2158843,26.1795367 95.1885689,26.0864637 95.1339371,26.0075871 C95.0793054,25.9287105 95.0004808,25.8640327 94.8974609,25.8135517 C94.7944411,25.7630707 94.6695704,25.7252105 94.5228452,25.69997 C94.3761199,25.6747294 94.2106663,25.6621094 94.0264793,25.6621094 C93.795465,25.6621094 93.5628934,25.6565881 93.3287574,25.6455454 C93.0946213,25.6345026 92.8760976,25.6218826 92.6731798,25.6076848 C92.4702619,25.593487 92.2923211,25.5777119 92.1393523,25.5603591 C91.9863834,25.5430062 91.8771215,25.5295974 91.8115635,25.5201322 Z M92.9962859,23.7359525 C93.1305239,23.7359525 93.2600772,23.7051911 93.3849497,23.6436674 C93.5098223,23.5821436 93.6198646,23.4977469 93.7150799,23.3904748 C93.8102952,23.2832026 93.8859981,23.1577907 93.9421907,23.0142353 C93.9983833,22.8706799 94.0264793,22.7152953 94.0264793,22.5480769 C94.0264793,22.3114471 93.9944811,22.0913847 93.930484,21.8878831 C93.8664868,21.6843815 93.7798577,21.5077006 93.6705943,21.357835 C93.5613308,21.2079695 93.4333383,21.0904451 93.2866131,21.0052584 C93.1398878,20.9200717 92.9853604,20.877479 92.8230261,20.877479 C92.6638136,20.877479 92.5256754,20.9106066 92.4086074,20.976863 C92.2915393,21.0431193 92.195545,21.1354036 92.1206215,21.2537184 C92.0456979,21.3720333 91.9902866,21.5108541 91.9543857,21.6701848 C91.9184849,21.8295155 91.9005347,22.0006752 91.9005347,22.1836689 C91.9005347,22.4013683 91.9270697,22.6048668 91.9801406,22.7941707 C92.0332114,22.9834745 92.1081338,23.1483241 92.20491,23.2887245 C92.3016863,23.4291248 92.4171916,23.5387616 92.5514296,23.6176382 C92.6856676,23.6965148 92.8339515,23.7359525 92.9962859,23.7359525 Z" id="Events-&amp;-Vermietung"></path>
                </g>
            </g>
            <g id="Group-3" transform="translate(5.000000, 5.000000)">
                <g id="Group-4">
                    <path d="M17.5,35 C7.83501688,35 0,27.1649831 0,17.5 C0,7.83501688 7.83501688,0 17.5,0 C27.1649831,0 35,7.83501688 35,17.5 C35,27.1649831 27.1649831,35 17.5,35 Z M24.0912163,12.7083442 C24.0912163,12.5334996 24.0912163,12.3703114 24.1053922,12.1954668 C24.0912163,12.1371852 24.0770404,12.09056 24.0770404,12.0322785 C24.0345127,11.5427137 23.7935225,11.1230867 23.4391252,10.7384286 C23.4107734,10.715116 23.3824216,10.7034597 23.3398939,10.6801471 C23.325718,10.715116 23.3115421,10.7384286 23.3115421,10.7617412 C23.2973662,10.8083664 23.2973662,10.8433353 23.2973662,10.8783043 C23.2548386,11.3212439 23.1414314,11.7641835 22.8862653,12.1604979 C22.6027475,12.5917812 22.3192296,13.0114082 22.0498876,13.4543478 C21.5537313,14.2819455 21.1142787,15.1095432 21.199334,16.0653602 C21.2418617,16.4849872 21.4403242,16.857989 21.6671385,17.2426471 C21.6813144,17.2193344 21.6954903,17.2193344 21.6954903,17.2076781 C21.7096662,17.1727092 21.7238421,17.126084 21.738018,17.0911151 C21.8797769,16.6598318 22.0640635,16.2402048 22.3475814,15.8555467 C22.6027475,15.5058575 22.8862653,15.179481 23.1272555,14.8297918 C23.5383564,14.2469765 23.9069296,13.6291924 24.0486886,12.9531266 C24.0628645,12.8715325 24.0770404,12.7899384 24.0912163,12.7083442 Z M14.9050416,19.4301471 C14.9504697,19.4188547 14.9807551,19.4188547 14.9807551,19.3962698 C14.9958978,19.3511002 15.0110405,19.2946382 15.0110405,19.2381762 C15.0110405,18.9671585 14.9807551,18.6961408 15.0261832,18.4251231 C15.1927528,17.4539763 15.5107493,16.5279992 16.2073132,15.6810689 C16.464739,15.376174 16.6767367,15.0599867 16.9190197,14.7663842 C17.3430151,14.258226 17.7821532,13.7500678 18.2061486,13.2306172 C19.1904236,12.0449148 20.0384144,10.8140427 20.3564109,9.40249219 C20.5835513,8.42005303 20.4169817,7.47149109 20.0384144,6.53422154 C19.6749897,5.65341402 18.9935686,4.89682294 18.236434,4.18540148 C18.2212913,4.16281668 18.1910059,4.15152427 18.1304351,4.11764706 C18.1455778,4.18540148 18.1455778,4.2305711 18.1455778,4.26444831 C18.1758632,4.47900399 18.2212913,4.68226727 18.2667194,4.88553054 C18.4484317,5.70987604 18.478717,6.54551395 18.3272901,7.36985945 C18.2061486,8.00223408 17.9638655,8.6007315 17.645869,9.18793651 C17.1764455,10.0461592 16.5858805,10.8592123 15.9801728,11.6722654 C15.4047505,12.4514413 14.8747563,13.253202 14.4810463,14.0888399 C14.2236205,14.6421677 14.0116228,15.2067879 13.9359093,15.7939929 C13.8299105,16.6860929 13.9359093,17.555608 14.3144766,18.4025383 C14.4810463,18.7526028 14.7081866,19.0913749 14.9050416,19.4301471 Z M13.1722188,7.76348039 C13.1570648,7.76348039 13.1267566,7.77581592 13.1116025,7.80048697 C13.1116025,7.87450013 13.1267566,7.94851329 13.1116025,8.02252644 C13.0509862,8.63930276 12.7933667,9.20673697 12.4145146,9.74950013 C11.8235052,10.5883159 11.2324959,11.4394672 11.0354927,12.4263093 C10.9142601,13.0554212 10.9900305,13.6475264 11.2931122,14.2272962 C11.3234204,14.2643028 11.3688826,14.2889738 11.4143449,14.3259804 C11.4446531,14.2889738 11.4901153,14.2519672 11.5052694,14.2149607 C11.6568103,13.9312436 11.778043,13.6351909 11.959892,13.3638093 C12.3690523,12.722362 12.838829,12.1055857 13.2479893,11.4641383 C13.6874578,10.7610133 13.9602313,10.0208817 13.8844609,9.2190725 C13.8389986,8.71331592 13.6116873,8.26923697 13.2479893,7.8621646 C13.2176811,7.82515802 13.202527,7.80048697 13.1722188,7.76348039 Z M24.0537189,21.3805287 C23.9710418,21.2302425 23.8366914,21.1901661 23.6506677,21.1901661 C19.5374788,21.2001852 15.4139551,21.1901661 11.2904315,21.1901661 C11.0940733,21.1901661 10.9803922,21.3204142 11.0217307,21.5007577 C11.3834433,23.1739448 11.7554906,24.8571509 12.1172032,26.5303379 C12.1378725,26.6305287 12.210215,26.7006623 12.3032268,26.7307196 C12.4065733,26.7607768 12.4789158,26.7307196 12.5615929,26.660586 C13.3056874,26.0193646 14.1531284,25.8490402 15.0625772,26.2097272 C15.9926953,26.5804333 16.468089,27.2917883 16.5197622,28.2736585 C16.5197622,28.2936967 16.5197622,28.3237539 16.5197622,28.3538112 C16.5197622,28.3538112 16.5197622,28.3638303 16.5300969,28.3738493 C17.1915142,28.3738493 17.8529315,28.3738493 18.5246835,28.3738493 C18.5350181,28.2536203 18.5350181,28.1333913 18.5556874,28.0131623 C18.7003725,27.1214639 19.2067701,26.4902616 20.085215,26.17967 C20.9843292,25.8690784 21.7904315,26.059441 22.4931874,26.6706051 C22.5758646,26.7507577 22.6585418,26.780815 22.7722229,26.7507577 C22.885904,26.7207005 22.9479118,26.6405478 22.9685811,26.5303379 C23.0925969,25.949231 23.206278,25.3781432 23.3302937,24.8070555 C23.5576559,23.7650707 23.7746835,22.723086 24.0020457,21.6811013 C24.0123803,21.6209868 24.0330496,21.5708913 24.0537189,21.5207959 C24.0537189,21.4807196 24.0537189,21.4306242 24.0537189,21.3805287 Z M18.9174,28.3437921 C18.9070654,29.3657387 19.7235024,30.2874944 20.901652,30.2874944 C22.1624788,30.2874944 22.9169079,29.3156432 22.9169079,28.3437921 C22.9169079,27.2717501 22.0281284,26.4101089 20.9119866,26.4101089 C19.8061796,26.4101089 18.9174,27.2717501 18.9174,28.3437921 Z M20.9326559,29.5360631 C20.2402347,29.5360631 19.6924985,29.0050516 19.6924985,28.3437921 C19.6924985,27.6725135 20.2402347,27.141502 20.9326559,27.141502 C21.6044079,27.141502 22.1624788,27.6825326 22.1624788,28.3437921 C22.1624788,29.0050516 21.6147426,29.5360631 20.9326559,29.5360631 Z M14.1841323,26.420128 C13.0783252,26.420128 12.1792111,27.2817692 12.1792111,28.3538112 C12.1792111,29.4158341 13.0783252,30.2975135 14.1737977,30.2975135 C15.2796048,30.2975135 16.1787189,29.4258532 16.1787189,28.3538112 C16.1787189,27.2917883 15.2899394,26.420128 14.1841323,26.420128 Z M14.163463,29.5360631 C13.4813764,29.5360631 12.9233055,28.9950326 12.9233055,28.333773 C12.9233055,27.6825326 13.4813764,27.141502 14.1531284,27.141502 C14.835215,27.141502 15.3932859,27.6825326 15.3932859,28.3437921 C15.3932859,28.9950326 14.835215,29.5360631 14.163463,29.5360631 Z" id="Combined-Shape" fill="#4E342E"></path>
                    <g id="icon" transform="translate(12.380392, 25.817647)">
                        <g id="wagon" transform="translate(0.000000, 0.670833)"></g>
                    </g>
                </g>
            </g>
        </g>
    </g>
</svg>