<?xml version="1.0" encoding="UTF-8"?>
<svg width="185px" height="45px" viewBox="0 0 185 45" version="1.1" xmlns="http://www.w3.org/2000/svg" xmlns:xlink="http://www.w3.org/1999/xlink">
    <!-- Generator: Sketch 47.1 (45422) - http://www.bohemiancoding.com/sketch -->
    <title>wagon</title>
    <desc>Created with Sketch.</desc>
    <defs></defs>
    <g id="Page-1" stroke="none" stroke-width="1" fill="none" fill-rule="evenodd">
        <g id="wagon">
            <g id="Group-2" transform="translate(5.000000, 5.000000)">
                <g id="Group-3">
                    <g id="Group-4">
                        <path d="M17.5,35 C7.83501688,35 0,27.1649831 0,17.5 C0,7.83501688 7.83501688,0 17.5,0 C27.1649831,0 35,7.83501688 35,17.5 C35,27.1649831 27.1649831,35 17.5,35 Z M24.0912163,12.7083442 C24.0912163,12.5334996 24.0912163,12.3703114 24.1053922,12.1954668 C24.0912163,12.1371852 24.0770404,12.09056 24.0770404,12.0322785 C24.0345127,11.5427137 23.7935225,11.1230867 23.4391252,10.7384286 C23.4107734,10.715116 23.3824216,10.7034597 23.3398939,10.6801471 C23.325718,10.715116 23.3115421,10.7384286 23.3115421,10.7617412 C23.2973662,10.8083664 23.2973662,10.8433353 23.2973662,10.8783043 C23.2548386,11.3212439 23.1414314,11.7641835 22.8862653,12.1604979 C22.6027475,12.5917812 22.3192296,13.0114082 22.0498876,13.4543478 C21.5537313,14.2819455 21.1142787,15.1095432 21.199334,16.0653602 C21.2418617,16.4849872 21.4403242,16.857989 21.6671385,17.2426471 C21.6813144,17.2193344 21.6954903,17.2193344 21.6954903,17.2076781 C21.7096662,17.1727092 21.7238421,17.126084 21.738018,17.0911151 C21.8797769,16.6598318 22.0640635,16.2402048 22.3475814,15.8555467 C22.6027475,15.5058575 22.8862653,15.179481 23.1272555,14.8297918 C23.5383564,14.2469765 23.9069296,13.6291924 24.0486886,12.9531266 C24.0628645,12.8715325 24.0770404,12.7899384 24.0912163,12.7083442 Z M14.9050416,19.4301471 C14.9504697,19.4188547 14.9807551,19.4188547 14.9807551,19.3962698 C14.9958978,19.3511002 15.0110405,19.2946382 15.0110405,19.2381762 C15.0110405,18.9671585 14.9807551,18.6961408 15.0261832,18.4251231 C15.1927528,17.4539763 15.5107493,16.5279992 16.2073132,15.6810689 C16.464739,15.376174 16.6767367,15.0599867 16.9190197,14.7663842 C17.3430151,14.258226 17.7821532,13.7500678 18.2061486,13.2306172 C19.1904236,12.0449148 20.0384144,10.8140427 20.3564109,9.40249219 C20.5835513,8.42005303 20.4169817,7.47149109 20.0384144,6.53422154 C19.6749897,5.65341402 18.9935686,4.89682294 18.236434,4.18540148 C18.2212913,4.16281668 18.1910059,4.15152427 18.1304351,4.11764706 C18.1455778,4.18540148 18.1455778,4.2305711 18.1455778,4.26444831 C18.1758632,4.47900399 18.2212913,4.68226727 18.2667194,4.88553054 C18.4484317,5.70987604 18.478717,6.54551395 18.3272901,7.36985945 C18.2061486,8.00223408 17.9638655,8.6007315 17.645869,9.18793651 C17.1764455,10.0461592 16.5858805,10.8592123 15.9801728,11.6722654 C15.4047505,12.4514413 14.8747563,13.253202 14.4810463,14.0888399 C14.2236205,14.6421677 14.0116228,15.2067879 13.9359093,15.7939929 C13.8299105,16.6860929 13.9359093,17.555608 14.3144766,18.4025383 C14.4810463,18.7526028 14.7081866,19.0913749 14.9050416,19.4301471 Z M13.1722188,7.76348039 C13.1570648,7.76348039 13.1267566,7.77581592 13.1116025,7.80048697 C13.1116025,7.87450013 13.1267566,7.94851329 13.1116025,8.02252644 C13.0509862,8.63930276 12.7933667,9.20673697 12.4145146,9.74950013 C11.8235052,10.5883159 11.2324959,11.4394672 11.0354927,12.4263093 C10.9142601,13.0554212 10.9900305,13.6475264 11.2931122,14.2272962 C11.3234204,14.2643028 11.3688826,14.2889738 11.4143449,14.3259804 C11.4446531,14.2889738 11.4901153,14.2519672 11.5052694,14.2149607 C11.6568103,13.9312436 11.778043,13.6351909 11.959892,13.3638093 C12.3690523,12.722362 12.838829,12.1055857 13.2479893,11.4641383 C13.6874578,10.7610133 13.9602313,10.0208817 13.8844609,9.2190725 C13.8389986,8.71331592 13.6116873,8.26923697 13.2479893,7.8621646 C13.2176811,7.82515802 13.202527,7.80048697 13.1722188,7.76348039 Z M24.0537189,21.3805287 C23.9710418,21.2302425 23.8366914,21.1901661 23.6506677,21.1901661 C19.5374788,21.2001852 15.4139551,21.1901661 11.2904315,21.1901661 C11.0940733,21.1901661 10.9803922,21.3204142 11.0217307,21.5007577 C11.3834433,23.1739448 11.7554906,24.8571509 12.1172032,26.5303379 C12.1378725,26.6305287 12.210215,26.7006623 12.3032268,26.7307196 C12.4065733,26.7607768 12.4789158,26.7307196 12.5615929,26.660586 C13.3056874,26.0193646 14.1531284,25.8490402 15.0625772,26.2097272 C15.9926953,26.5804333 16.468089,27.2917883 16.5197622,28.2736585 C16.5197622,28.2936967 16.5197622,28.3237539 16.5197622,28.3538112 C16.5197622,28.3538112 16.5197622,28.3638303 16.5300969,28.3738493 C17.1915142,28.3738493 17.8529315,28.3738493 18.5246835,28.3738493 C18.5350181,28.2536203 18.5350181,28.1333913 18.5556874,28.0131623 C18.7003725,27.1214639 19.2067701,26.4902616 20.085215,26.17967 C20.9843292,25.8690784 21.7904315,26.059441 22.4931874,26.6706051 C22.5758646,26.7507577 22.6585418,26.780815 22.7722229,26.7507577 C22.885904,26.7207005 22.9479118,26.6405478 22.9685811,26.5303379 C23.0925969,25.949231 23.206278,25.3781432 23.3302937,24.8070555 C23.5576559,23.7650707 23.7746835,22.723086 24.0020457,21.6811013 C24.0123803,21.6209868 24.0330496,21.5708913 24.0537189,21.5207959 C24.0537189,21.4807196 24.0537189,21.4306242 24.0537189,21.3805287 Z M18.9174,28.3437921 C18.9070654,29.3657387 19.7235024,30.2874944 20.901652,30.2874944 C22.1624788,30.2874944 22.9169079,29.3156432 22.9169079,28.3437921 C22.9169079,27.2717501 22.0281284,26.4101089 20.9119866,26.4101089 C19.8061796,26.4101089 18.9174,27.2717501 18.9174,28.3437921 Z M20.9326559,29.5360631 C20.2402347,29.5360631 19.6924985,29.0050516 19.6924985,28.3437921 C19.6924985,27.6725135 20.2402347,27.141502 20.9326559,27.141502 C21.6044079,27.141502 22.1624788,27.6825326 22.1624788,28.3437921 C22.1624788,29.0050516 21.6147426,29.5360631 20.9326559,29.5360631 Z M14.1841323,26.420128 C13.0783252,26.420128 12.1792111,27.2817692 12.1792111,28.3538112 C12.1792111,29.4158341 13.0783252,30.2975135 14.1737977,30.2975135 C15.2796048,30.2975135 16.1787189,29.4258532 16.1787189,28.3538112 C16.1787189,27.2917883 15.2899394,26.420128 14.1841323,26.420128 Z M14.163463,29.5360631 C13.4813764,29.5360631 12.9233055,28.9950326 12.9233055,28.333773 C12.9233055,27.6825326 13.4813764,27.141502 14.1531284,27.141502 C14.835215,27.141502 15.3932859,27.6825326 15.3932859,28.3437921 C15.3932859,28.9950326 14.835215,29.5360631 14.163463,29.5360631 Z" id="Combined-Shape" fill="#4E342E"></path>
                        <g id="icon" transform="translate(12.380392, 25.817647)">
                            <g id="wagon" transform="translate(0.000000, 0.670833)"></g>
                        </g>
                    </g>
                </g>
                <g id="Group" transform="translate(45.000000, 12.000000)" fill="#4E342E">
                    <path d="M4.35386783,11.8545673 C3.67678111,11.8545673 3.08433912,11.7746402 2.57652408,11.6147837 C2.06870904,11.4549271 1.63721148,11.234777 1.28201844,10.9543269 C0.92682541,10.6738768 0.643785207,10.3387439 0.432889344,9.94891827 C0.221993481,9.5590926 0.0776984759,9.13141258 0,8.66586538 L1.92302766,8.66586538 C1.98962636,8.95192451 2.086748,9.21834812 2.21439549,9.46514423 C2.34204299,9.71194034 2.50437487,9.92648146 2.701396,10.108774 C2.89841714,10.2910666 3.13150907,10.434094 3.40067879,10.5378606 C3.66984851,10.6416271 3.9820252,10.6935096 4.33721824,10.6935096 C4.57031367,10.6935096 4.80201814,10.6682695 5.03233863,10.6177885 C5.26265911,10.5673074 5.46938945,10.4845759 5.65253586,10.3695913 C5.83568227,10.2546068 5.98275218,10.1059705 6.09375,9.92367788 C6.20474782,9.74138531 6.2602459,9.51562635 6.2602459,9.24639423 C6.2602459,8.90985409 6.17422388,8.60977696 6.00217725,8.34615385 C5.83013063,8.08253073 5.60258851,7.84274948 5.31954406,7.62680288 C5.03649961,7.41085629 4.71461075,7.21033746 4.35386783,7.02524038 C3.9931249,6.84014331 3.62406268,6.65364677 3.24667008,6.46574519 C2.86927748,6.27784361 2.50021526,6.08012924 2.13947234,5.87259615 C1.77872941,5.66506306 1.45684055,5.43369519 1.17379611,5.17848558 C0.890751659,4.92327597 0.663209535,4.63441668 0.49116291,4.31189904 C0.319116285,3.9893814 0.233094262,3.62059502 0.233094262,3.20552885 C0.233094262,2.75119965 0.331603352,2.33193301 0.528624488,1.94771635 C0.725645623,1.56349968 1.01007328,1.22976904 1.38191598,0.946514423 C1.75375869,0.663259802 2.20884294,0.44170753 2.74718238,0.281850962 C3.28552182,0.121994393 3.89877559,0.0420673077 4.58696209,0.0420673077 C5.15305099,0.0420673077 5.66640822,0.120592163 6.12704918,0.277644231 C6.58769014,0.434696298 6.99421357,0.652041881 7.34663166,0.9296875 C7.69904975,1.20733312 7.99457702,1.53265038 8.23322234,1.90564904 C8.47186765,2.2786477 8.65501132,2.67828312 8.78265881,3.10456731 L7.04277664,3.10456731 C6.9428786,2.83533519 6.82633263,2.57732495 6.69313525,2.33052885 C6.55993786,2.08373274 6.39621853,1.86778939 6.20197234,1.68269231 C6.00772615,1.49759523 5.77185931,1.35036112 5.49436475,1.24098558 C5.2168702,1.13161003 4.88665663,1.07692308 4.50371414,1.07692308 C4.14297122,1.07692308 3.83911923,1.12459888 3.59214908,1.21995192 C3.34517892,1.31530496 3.14677329,1.43729894 2.99692623,1.5859375 C2.84707917,1.73457606 2.73885791,1.90003915 2.67225922,2.08233173 C2.60566053,2.26462431 2.57236168,2.44270746 2.57236168,2.61658654 C2.57236168,2.91947267 2.66115861,3.19430966 2.83875512,3.44110577 C3.01635164,3.68790187 3.25083102,3.91786752 3.54220031,4.13100962 C3.83356959,4.34415171 4.16517061,4.54747499 4.53701332,4.74098558 C4.90885603,4.93449616 5.28763041,5.12940607 5.67334785,5.32572115 C6.05906528,5.52203624 6.43783967,5.72816398 6.80968238,5.94411058 C7.18152508,6.16005717 7.5131261,6.39703397 7.80449539,6.65504808 C8.09586467,6.91306219 8.33034406,7.19911702 8.50794057,7.51322115 C8.68553709,7.82732529 8.77433402,8.18068714 8.77433402,8.57331731 C8.77433402,9.03886451 8.67998728,9.47075121 8.49129098,9.86899038 C8.30259468,10.2672296 8.02232939,10.6135803 7.65048668,10.9080529 C7.27864397,11.2025255 6.81662247,11.4338934 6.2644083,11.6021635 C5.71219413,11.7704335 5.07535368,11.8545673 4.35386783,11.8545673 Z M16.6912141,0.0420673077 L21.9857838,11.6862981 L19.1553535,11.6862981 L17.7401383,8.57331731 L13.3529713,8.57331731 L11.8711578,11.6862981 L9.9897541,11.6862981 L15.4924436,0.0420673077 L16.6912141,0.0420673077 Z M13.8774334,7.51322115 L17.2739498,7.51322115 L15.600666,3.828125 L13.8774334,7.51322115 Z M23.5674949,0.277644231 L26.3396516,0.277644231 L26.3396516,7.61418269 C26.3396516,8.05168488 26.4076368,8.46394037 26.5436091,8.85096154 C26.6795815,9.2379827 26.8738247,9.57592003 27.1263448,9.86478365 C27.3788648,10.1536473 27.6841043,10.3822107 28.0420722,10.5504808 C28.4000402,10.7187508 28.8037887,10.8028846 29.2533299,10.8028846 C29.6917713,10.8028846 30.0885826,10.7187508 30.4437756,10.5504808 C30.7989686,10.3822107 31.1014332,10.1536473 31.3511783,9.86478365 C31.6009234,9.57592003 31.7937792,9.2379827 31.9297515,8.85096154 C32.0657239,8.46394037 32.133709,8.05168488 32.133709,7.61418269 L32.133709,0.277644231 L33.881916,0.277644231 L33.881916,7.61418269 C33.881916,8.20312794 33.7834069,8.75981308 33.5863858,9.28425481 C33.3893646,9.80869653 33.0799628,10.2672256 32.6581711,10.6598558 C32.2363794,11.0524859 31.6952731,11.3637809 31.0348361,11.59375 C30.374399,11.8237191 29.5807765,11.9387019 28.6539447,11.9387019 C27.8270109,11.9387019 27.0958237,11.8237191 26.4603612,11.59375 C25.8248986,11.3637809 25.2935045,11.0510837 24.8661629,10.655649 C24.4388213,10.2602144 24.115545,9.79888084 23.8963243,9.27163462 C23.6771036,8.74438839 23.5674949,8.18349656 23.5674949,7.58894231 L23.5674949,0.277644231 Z M36.7123463,0.277644231 L38.4855277,0.277644231 L44.9205943,7.53004808 L44.9205943,0.277644231 L46.6521516,0.277644231 L46.6521516,11.8545673 L45.4617059,11.8545673 L38.4688781,3.84495192 L38.4688781,11.6862981 L36.7123463,11.6862981 L36.7123463,0.277644231 Z M54.885374,0.0420673077 L60.1799436,11.6862981 L57.3495133,11.6862981 L55.9342982,8.57331731 L51.5471311,8.57331731 L50.0653176,11.6862981 L48.1839139,11.6862981 L53.6866035,0.0420673077 L54.885374,0.0420673077 Z M52.0715932,7.51322115 L55.4681096,7.51322115 L53.7948258,3.828125 L52.0715932,7.51322115 Z M63.2184939,0.277644231 L66.0822234,7.64783654 L68.9542777,0.151442308 L71.8513064,7.61418269 L74.6484375,0.277644231 L76.496542,0.277644231 L72.0594262,11.8545673 L70.8023822,11.8545673 L68.4880891,5.90625 L66.2154201,11.8545673 L64.958376,11.8545673 L60.4296875,0.277644231 L63.2184939,0.277644231 Z M83.3977971,0.0420673077 L88.6923668,11.6862981 L85.8619365,11.6862981 L84.4467213,8.57331731 L80.0595543,8.57331731 L78.5777408,11.6862981 L76.6963371,11.6862981 L82.1990266,0.0420673077 L83.3977971,0.0420673077 Z M80.5840164,7.51322115 L83.9805328,7.51322115 L82.307249,3.828125 L80.5840164,7.51322115 Z M97.1836578,6.125 L101.870517,6.125 L101.870517,10.5168269 C101.509774,10.713142 101.149037,10.8926274 100.788294,11.0552885 C100.427551,11.2179495 100.041839,11.3581725 99.6311475,11.4759615 C99.2204556,11.5937506 98.7723086,11.6862977 98.2866931,11.7536058 C97.8010777,11.8209138 97.255809,11.8545673 96.6508709,11.8545673 C95.67964,11.8545673 94.7847334,11.7171488 93.9661245,11.4423077 C93.1475155,11.1674666 92.439915,10.7804512 91.8433017,10.28125 C91.2466884,9.78204879 90.781892,9.17909007 90.4488986,8.47235577 C90.1159051,7.76562147 89.9494109,6.98317737 89.9494109,6.125 C89.9494109,5.21634161 90.1159051,4.38622171 90.4488986,3.63461538 C90.781892,2.88300906 91.245301,2.23798346 91.8391393,1.69951923 C92.4329777,1.161055 93.1391907,0.743190589 93.9577997,0.445913462 C94.7764086,0.148636334 95.6713152,0 96.6425461,0 C97.2141849,0 97.7650033,0.0785248558 98.2950179,0.235576923 C98.8250325,0.39262899 99.3148031,0.600158966 99.7643443,0.858173077 C100.213885,1.11618719 100.619021,1.41205763 100.979764,1.74579327 C101.340507,2.07952891 101.637422,2.42307516 101.870517,2.77644231 L100.73002,3.828125 C100.491375,3.48597585 100.241634,3.16907197 99.9807889,2.87740385 C99.7199441,2.58573572 99.4424537,2.33193217 99.1483094,2.11598558 C98.8541652,1.90003898 98.5392136,1.73036921 98.2034452,1.60697115 C97.8676768,1.4835731 97.5083267,1.421875 97.1253842,1.421875 C96.5426457,1.421875 96.0001519,1.52844445 95.4978868,1.74158654 C94.9956216,1.95472863 94.5599617,2.26181691 94.190894,2.66286058 C93.8218262,3.06390425 93.5332362,3.55608683 93.3251153,4.13942308 C93.1169943,4.72275933 93.0129355,5.38461168 93.0129355,6.125 C93.0129355,6.86538832 93.1239316,7.5188273 93.3459273,8.08533654 C93.5679229,8.65184578 93.8703874,9.12860383 94.2533299,9.515625 C94.6362724,9.90264617 95.0844194,10.1957121 95.5977843,10.3948317 C96.1111493,10.5939513 96.6619677,10.6935096 97.2502561,10.6935096 C97.5998993,10.6935096 97.9301129,10.647236 98.2409068,10.5546875 C98.5517007,10.462139 98.8375158,10.3205138 99.0983607,10.1298077 L99.0983607,7.10096154 L97.1836578,7.10096154 L97.1836578,6.125 Z M110.753074,11.9387019 C109.842892,11.9387019 108.993771,11.7900656 108.205686,11.4927885 C107.417602,11.1955113 106.734976,10.7790492 106.157787,10.2433894 C105.580598,9.70772969 105.126901,9.07111747 104.796683,8.33353365 C104.466464,7.59594984 104.301358,6.78686338 104.301358,5.90625 C104.301358,5.04246363 104.466464,4.25020392 104.796683,3.52944712 C105.126901,2.80869031 105.580598,2.19030707 106.157787,1.67427885 C106.734976,1.15825063 107.417602,0.757212969 108.205686,0.471153846 C108.993771,0.185094724 109.842892,0.0420673077 110.753074,0.0420673077 C111.663256,0.0420673077 112.510989,0.186496953 113.296299,0.475360577 C114.081608,0.764224201 114.764235,1.16666409 115.344198,1.68269231 C115.924162,2.19872053 116.380634,2.81429931 116.713627,3.52944712 C117.046621,4.24459492 117.213115,5.02844125 117.213115,5.88100962 C117.213115,6.48678188 117.138192,7.05748931 116.988345,7.59314904 C116.838498,8.12880877 116.624831,8.62099135 116.347336,9.06971154 C116.069842,9.51843173 115.736853,9.91946939 115.348361,10.2728365 C114.959868,10.6262037 114.525596,10.9262808 114.04553,11.1730769 C113.565465,11.419873 113.047945,11.609174 112.492956,11.7409856 C111.937967,11.8727971 111.358012,11.9387019 110.753074,11.9387019 Z M110.753074,10.9795673 C111.302513,10.9795673 111.788121,10.8519644 112.209913,10.5967548 C112.631705,10.3415452 112.984117,9.98958558 113.267162,9.54086538 C113.550206,9.09214519 113.765261,8.55789573 113.912334,7.93810096 C114.059406,7.3183062 114.132941,6.64102931 114.132941,5.90625 C114.132941,5.18268869 114.059406,4.52083633 113.912334,3.92067308 C113.765261,3.32050982 113.550206,2.80448934 113.267162,2.37259615 C112.984117,1.94070297 112.631705,1.60416787 112.209913,1.36298077 C111.788121,1.12179367 111.302513,1.00120192 110.753074,1.00120192 C110.198085,1.00120192 109.709702,1.12179367 109.28791,1.36298077 C108.866118,1.60416787 108.513705,1.94070297 108.230661,2.37259615 C107.947616,2.80448934 107.733949,3.32050982 107.589652,3.92067308 C107.445354,4.52083633 107.373207,5.18268869 107.373207,5.90625 C107.373207,6.64102931 107.445354,7.3183062 107.589652,7.93810096 C107.733949,8.55789573 107.947616,9.09214519 108.230661,9.54086538 C108.513705,9.98958558 108.866118,10.3415452 109.28791,10.5967548 C109.709702,10.8519644 110.198085,10.9795673 110.753074,10.9795673 Z M119.693904,0.277644231 L121.467085,0.277644231 L127.902152,7.53004808 L127.902152,0.277644231 L129.633709,0.277644231 L129.633709,11.8545673 L128.443263,11.8545673 L121.450435,3.84495192 L121.450435,11.6862981 L119.693904,11.6862981 L119.693904,0.277644231 Z" id="SAUNAWAGON"></path>
                </g>
            </g>
        </g>
    </g>
</svg>