<?xml version="1.0" encoding="UTF-8"?>
<svg width="151px" height="50px" viewBox="0 0 151 50" version="1.1" xmlns="http://www.w3.org/2000/svg" xmlns:xlink="http://www.w3.org/1999/xlink">
    <!-- Generator: Sketch 47.1 (45422) - http://www.bohemiancoding.com/sketch -->
    <title>wagon</title>
    <desc>Created with Sketch.</desc>
    <defs></defs>
    <g id="Page-1" stroke="none" stroke-width="1" fill="none" fill-rule="evenodd">
        <g id="wagon" fill="#4E342E">
            <g id="Group" transform="translate(2.000000, 2.000000)">
                <g id="icon" fill-rule="nonzero">
                    <g id="wagon" transform="translate(0.000000, 28.000000)">
                        <path d="M17.9291339,5.67480916 C17.9291339,5.74351145 17.9291339,5.81221374 17.9291339,5.86717557 C17.9007874,5.93587786 17.8724409,6.00458015 17.8582677,6.0870229 C17.5464567,7.51603053 17.2488189,8.94503817 16.9370079,10.3740458 C16.7669291,11.1572519 16.6110236,11.940458 16.4409449,12.7374046 C16.4125984,12.8885496 16.3275591,12.9984733 16.1716535,13.0396947 C16.015748,13.080916 15.9023622,13.0396947 15.7889764,12.929771 C14.8251969,12.0916031 13.719685,11.8305344 12.4866142,12.2564885 C11.2818898,12.6824427 10.5874016,13.5480916 10.3889764,14.7709924 C10.3606299,14.9358779 10.3606299,15.1007634 10.3464567,15.2656489 C9.42519685,15.2656489 8.51811024,15.2656489 7.61102362,15.2656489 C7.59685039,15.2519084 7.59685039,15.2381679 7.59685039,15.2381679 C7.59685039,15.1969466 7.59685039,15.1557252 7.59685039,15.1282443 C7.52598425,13.7816794 6.87401575,12.8061069 5.5984252,12.2977099 C4.3511811,11.8030534 3.18897638,12.0366412 2.16850394,12.9160305 C2.05511811,13.0122137 1.95590551,13.0534351 1.81417323,13.0122137 C1.68661417,12.9709924 1.58740157,12.8748092 1.55905512,12.7374046 C1.06299213,10.4427481 0.552755906,8.13435115 0.0566929134,5.83969466 C3.42781359e-15,5.59236641 0.155905512,5.41374046 0.42519685,5.41374046 C6.08031496,5.41374046 11.7354331,5.42748092 17.376378,5.41374046 C17.6314961,5.41374046 17.815748,5.46870229 17.9291339,5.67480916 Z" id="Shape"></path>
                        <path d="M11.2251969,0.0687022901 C11.2535433,0.247328244 11.296063,0.439694656 11.3244094,0.618320611 C11.3385827,0.741984733 11.3811024,0.769465649 11.5086614,0.769465649 C12.0472441,0.769465649 12.5858268,0.769465649 13.1244094,0.783206107 C13.2094488,0.783206107 13.3086614,0.810687023 13.3795276,0.851908397 C13.9322835,1.14045802 14.4850394,1.44274809 15.0377953,1.73129771 C15.1370079,1.78625954 15.1795276,1.84122137 15.1653543,1.9648855 C15.1228346,2.2259542 15.1228346,2.47328244 15.080315,2.73435115 C15.0661417,2.85801527 15.0944882,2.9129771 15.207874,2.95419847 C15.6330709,3.13282443 16.0724409,3.32519084 16.511811,3.51755725 C16.4125984,3.8610687 16.3133858,4.20458015 16.2141732,4.5480916 C16.1007874,4.90534351 16.1007874,4.90534351 15.7181102,4.91908397 C15.2503937,4.91908397 14.7826772,4.91908397 14.2724409,4.91908397 C14.3716535,4.58931298 14.4425197,4.2870229 14.5559055,3.98473282 C14.584252,3.91603053 14.711811,3.87480916 14.8110236,3.84732824 C15.1653543,3.7648855 15.5338583,3.70992366 15.9023622,3.64122137 C15.9590551,3.62748092 16.015748,3.6 16.0724409,3.58625954 C16.0724409,3.57251908 16.0724409,3.55877863 16.0724409,3.53129771 C16.015748,3.51755725 15.9448819,3.50381679 15.888189,3.50381679 C15.519685,3.51755725 15.1511811,3.54503817 14.7826772,3.54503817 C14.6125984,3.54503817 14.4283465,3.51755725 14.2724409,3.46259542 C13.6771654,3.22900763 13.096063,2.98167939 12.5007874,2.7480916 C12.4299213,2.72061069 12.3590551,2.70687023 12.288189,2.69312977 C12.2740157,2.70687023 12.2740157,2.73435115 12.2598425,2.7480916 C12.3165354,2.77557252 12.3590551,2.81679389 12.415748,2.84427481 C12.9401575,3.10534351 13.4787402,3.38015267 14.0031496,3.64122137 C14.0598425,3.66870229 14.1165354,3.69618321 14.1590551,3.73740458 C14.2582677,3.80610687 14.2724409,3.87480916 14.1874016,3.97099237 C13.8614173,4.27328244 13.5496063,4.57557252 13.223622,4.8778626 C13.1952756,4.90534351 13.1527559,4.91908397 13.1244094,4.91908397 C12.3590551,4.91908397 11.5795276,4.91908397 10.7858268,4.91908397 C10.8566929,4.68549618 10.9559055,4.46564885 10.9984252,4.23206107 C11.0551181,3.94351145 11.2251969,3.79236641 11.5228346,3.72366412 C11.7779528,3.66870229 12.0047244,3.58625954 12.2598425,3.50381679 C12.3165354,3.49007634 12.3590551,3.44885496 12.4015748,3.42137405 C12.4015748,3.40763359 12.3874016,3.39389313 12.3874016,3.38015267 C12.3307087,3.38015267 12.2740157,3.36641221 12.2173228,3.38015267 C11.8488189,3.44885496 11.4661417,3.50381679 11.0976378,3.57251908 C10.8425197,3.62748092 10.6015748,3.61374046 10.3464567,3.53129771 C9.82204724,3.36641221 9.2976378,3.21526718 8.77322835,3.05038168 C8.7023622,3.03664122 8.63149606,3.02290076 8.57480315,3.00916031 C8.56062992,3.03664122 8.56062992,3.05038168 8.54645669,3.0778626 C8.60314961,3.11908397 8.65984252,3.16030534 8.71653543,3.18778626 C9.25511811,3.38015267 9.77952756,3.58625954 10.3181102,3.7648855 C10.4456693,3.80610687 10.5023622,3.87480916 10.488189,3.99847328 C10.488189,4.2870229 10.488189,4.57557252 10.488189,4.89160305 C8.51811024,4.89160305 6.53385827,4.89160305 4.50708661,4.89160305 C4.50708661,4.72671756 4.49291339,4.5480916 4.50708661,4.38320611 C4.52125984,4.31450382 4.59212598,4.24580153 4.6488189,4.19083969 C4.81889764,4.06717557 5.00314961,3.94351145 5.18740157,3.81984733 C5.18740157,3.80610687 5.17322835,3.79236641 5.17322835,3.77862595 C5.14488189,3.77862595 5.1023622,3.7648855 5.07401575,3.7648855 C5.03149606,3.7648855 5.00314961,3.77862595 4.96062992,3.80610687 C4.47874016,4.05343511 3.96850394,4.03969466 3.44409449,3.97099237 C3.01889764,3.91603053 2.57952756,3.88854962 2.14015748,3.83358779 C2.0976378,3.83358779 2.05511811,3.83358779 2.01259843,3.83358779 C2.01259843,3.84732824 2.01259843,3.87480916 1.9984252,3.88854962 C2.05511811,3.90229008 2.0976378,3.92977099 2.15433071,3.92977099 C2.66456693,4.0259542 3.17480315,4.10839695 3.67086614,4.20458015 C4.09606299,4.27328244 4.23779528,4.4519084 4.20944882,4.89160305 C3.31653543,4.89160305 2.40944882,4.89160305 1.5023622,4.89160305 C1.5023622,4.58931298 1.5023622,4.27328244 1.5023622,3.97099237 C1.5023622,3.92977099 1.58740157,3.87480916 1.62992126,3.84732824 C2.26771654,3.58625954 2.91968504,3.3389313 3.55748031,3.06412214 C3.64251969,3.03664122 3.72755906,2.96793893 3.77007874,2.89923664 C4.09606299,2.4870229 4.42204724,2.0610687 4.73385827,1.64885496 C4.80472441,1.55267176 4.87559055,1.52519084 5.00314961,1.55267176 C5.54173228,1.66259542 6.08031496,1.75877863 6.64724409,1.86870229 C6.63307087,1.67633588 6.63307087,1.49770992 6.61889764,1.30534351 C6.60472441,1.18167939 6.64724409,1.1129771 6.76062992,1.05801527 C7.35590551,0.728244275 7.93700787,0.384732824 8.53228346,0.0549618321 C9.43937008,0.0687022901 10.3322835,0.0687022901 11.2251969,0.0687022901 Z M7.04409449,0.989312977 C7.04409449,1.00305344 7.04409449,1.03053435 7.04409449,1.04427481 C7.1007874,1.05801527 7.15748031,1.08549618 7.2,1.08549618 C7.78110236,1.15419847 8.36220472,1.22290076 8.95748031,1.2778626 C9.08503937,1.29160305 9.14173228,1.34656489 9.18425197,1.45648855 C9.34015748,1.88244275 9.51023622,2.29465649 9.68031496,2.72061069 C9.69448819,2.77557252 9.73700787,2.81679389 9.76535433,2.85801527 C9.77952756,2.85801527 9.79370079,2.84427481 9.80787402,2.84427481 C9.80787402,2.78931298 9.80787402,2.72061069 9.80787402,2.66564885 C9.7511811,2.2259542 9.70866142,1.78625954 9.6519685,1.34656489 C9.63779528,1.19541985 9.66614173,1.08549618 9.80787402,1.00305344 C10.119685,0.810687023 10.4314961,0.604580153 10.7291339,0.398473282 C10.7716535,0.370992366 10.8141732,0.329770992 10.8566929,0.288549618 C10.8425197,0.27480916 10.8425197,0.261068702 10.8283465,0.247328244 C10.7716535,0.261068702 10.7149606,0.27480916 10.6582677,0.302290076 C10.303937,0.480916031 9.96377953,0.673282443 9.60944882,0.851908397 C9.45354331,0.920610687 9.28346457,0.975572519 9.11338583,0.975572519 C8.48976378,0.989312977 7.86614173,0.989312977 7.24251969,0.989312977 C7.17165354,0.975572519 7.11496063,0.975572519 7.04409449,0.989312977 Z M8.23464567,3.62748092 C8.2488189,3.61374046 8.29133858,3.58625954 8.33385827,3.54503817 C8.29133858,3.51755725 8.26299213,3.46259542 8.22047244,3.44885496 C7.92283465,3.38015267 7.61102362,3.32519084 7.31338583,3.24274809 C7.17165354,3.20152672 7.04409449,3.13282443 6.93070866,3.05038168 C6.42047244,2.6519084 5.93858268,2.23969466 5.44251969,1.82748092 C5.38582677,1.78625954 5.31496063,1.75877863 5.24409449,1.73129771 C5.27244094,1.78625954 5.3007874,1.86870229 5.34330709,1.90992366 C5.74015748,2.3221374 6.1511811,2.72061069 6.56220472,3.11908397 C6.68976378,3.24274809 6.68976378,3.32519084 6.60472441,3.47633588 C6.39212598,3.83358779 6.17952756,4.20458015 5.98110236,4.57557252 C5.95275591,4.63053435 5.98110236,4.69923664 5.96692913,4.76793893 C6.02362205,4.74045802 6.08031496,4.7129771 6.12283465,4.67175573 C6.40629921,4.31450382 6.70393701,3.97099237 6.98740157,3.61374046 C7.07244094,3.50381679 7.15748031,3.46259542 7.31338583,3.49007634 C7.59685039,3.54503817 7.89448819,3.58625954 8.23464567,3.62748092 Z M14.6834646,1.75877863 C14.6834646,1.74503817 14.6834646,1.71755725 14.6834646,1.70381679 C14.6267717,1.69007634 14.5700787,1.67633588 14.4992126,1.67633588 C13.8897638,1.66259542 13.2944882,1.66259542 12.6850394,1.64885496 C12.5007874,1.6351145 12.3023622,1.58015267 12.1181102,1.51145038 C11.919685,1.42900763 11.7354331,1.31908397 11.5370079,1.22290076 C11.4944882,1.20916031 11.4377953,1.22290076 11.3952756,1.22290076 C11.423622,1.26412214 11.4377953,1.30534351 11.4661417,1.33282443 C11.6362205,1.45648855 11.8204724,1.55267176 11.976378,1.67633588 C12.0472441,1.73129771 12.103937,1.81374046 12.1181102,1.88244275 C12.1464567,2.07480916 12.1322835,2.26717557 12.1464567,2.45954198 C12.1464567,2.51450382 12.1889764,2.56946565 12.2173228,2.61068702 C12.2456693,2.55572519 12.3023622,2.51450382 12.3165354,2.45954198 C12.3448819,2.34961832 12.3590551,2.2259542 12.3874016,2.10229008 C12.4299213,1.90992366 12.5007874,1.84122137 12.7133858,1.84122137 C13.3086614,1.82748092 13.9181102,1.8 14.5133858,1.78625954 C14.5700787,1.78625954 14.6267717,1.77251908 14.6834646,1.75877863 Z" id="Shape"></path>
                        <path d="M10.8850394,15.2244275 C10.8850394,13.7541985 12.103937,12.5725191 13.6204724,12.5725191 C15.1511811,12.5725191 16.3700787,13.7541985 16.3700787,15.2244275 C16.3700787,16.5572519 15.3354331,17.8900763 13.6062992,17.8900763 C11.9905512,17.8900763 10.8708661,16.6259542 10.8850394,15.2244275 Z M13.6488189,16.859542 C14.584252,16.859542 15.3354331,16.1312977 15.3354331,15.2244275 C15.3354331,14.3175573 14.5700787,13.5755725 13.6488189,13.5755725 C12.6992126,13.5755725 11.9480315,14.3038168 11.9480315,15.2244275 C11.9480315,16.1312977 12.6992126,16.859542 13.6488189,16.859542 Z" id="Shape"></path>
                        <path d="M4.39370079,12.5862595 C5.91023622,12.5862595 7.12913386,13.7816794 7.12913386,15.2381679 C7.12913386,16.7083969 5.89606299,17.9038168 4.37952756,17.9038168 C2.87716535,17.9038168 1.64409449,16.6946565 1.64409449,15.2381679 C1.64409449,13.7679389 2.87716535,12.5862595 4.39370079,12.5862595 Z M4.36535433,16.859542 C5.28661417,16.859542 6.0519685,16.1175573 6.0519685,15.2244275 C6.0519685,14.3175573 5.28661417,13.5755725 4.3511811,13.5755725 C3.42992126,13.5755725 2.66456693,14.3175573 2.66456693,15.210687 C2.66456693,16.1175573 3.42992126,16.859542 4.36535433,16.859542 Z" id="Shape"></path>
                    </g>
                    <g id="steam">
                        <path d="M17.8292442,14.189781 C17.8084884,14.3277372 17.7877326,14.4656934 17.7669767,14.6036496 C17.5594186,15.7467153 17.0197674,16.7912409 16.4178488,17.7766423 C16.065,18.3678832 15.6498837,18.919708 15.2762791,19.5109489 C14.8611628,20.1613139 14.5913372,20.8708029 14.3837791,21.6 C14.3630233,21.6591241 14.3422674,21.7379562 14.3215116,21.7970803 C14.3215116,21.8167883 14.3007558,21.8167883 14.28,21.8562044 C13.947907,21.2058394 13.6573256,20.5751825 13.5950581,19.8656934 C13.4705233,18.249635 14.1139535,16.850365 14.840407,15.4510949 C15.2347674,14.7021898 15.6498837,13.9927007 16.065,13.2635036 C16.4386047,12.5934307 16.6046512,11.8445255 16.6669186,11.0956204 C16.6669186,11.0364964 16.6669186,10.9773723 16.6876744,10.8985401 C16.6876744,10.8591241 16.7084302,10.819708 16.729186,10.7605839 C16.7914535,10.8 16.8329651,10.819708 16.8744767,10.8591241 C17.3933721,11.5094891 17.7462209,12.2189781 17.8084884,13.0467153 C17.8084884,13.1452555 17.8292442,13.2240876 17.85,13.3226277 C17.8292442,13.6182482 17.8292442,13.8941606 17.8292442,14.189781 Z" id="Shape"></path>
                        <path d="M5.43802326,26.8423358 C5.16819767,26.2510949 4.85686047,25.659854 4.62854651,25.0489051 C4.10965116,23.5708029 3.96436047,22.0532847 4.10965116,20.4963504 C4.21343023,19.4715328 4.50401163,18.4861314 4.85686047,17.520438 C5.39651163,16.0620438 6.12296512,14.6627737 6.91168605,13.3029197 C7.7419186,11.8839416 8.55139535,10.4649635 9.19482558,8.96715328 C9.63069767,7.94233577 9.9627907,6.89781022 10.1288372,5.79416058 C10.3363953,4.35547445 10.2948837,2.89708029 10.045814,1.45839416 C9.98354651,1.10364964 9.92127907,0.748905109 9.87976744,0.374452555 C9.87976744,0.315328467 9.87976744,0.23649635 9.85901163,0.118248175 C9.94203488,0.177372263 9.98354651,0.197080292 10.0043023,0.23649635 C11.042093,1.47810219 11.9761047,2.79854015 12.4742442,4.33576642 C12.9931395,5.97153285 13.2214535,7.6270073 12.9101163,9.34160584 C12.4742442,11.8051095 11.3119186,13.9532847 9.9627907,16.0226277 C9.38162791,16.9291971 8.7797093,17.8160584 8.19854651,18.7029197 C7.86645349,19.2153285 7.57587209,19.7671533 7.22302326,20.2992701 C6.26825581,21.7773723 5.83238372,23.3934307 5.60406977,25.0883212 C5.54180233,25.5613139 5.58331395,26.0343066 5.58331395,26.5072993 C5.58331395,26.6058394 5.56255814,26.7043796 5.54180233,26.7832117 C5.54180233,26.8226277 5.5002907,26.8226277 5.43802326,26.8423358 Z" id="Shape"></path>
                        <path d="M3.30017442,5.83357664 C3.34168605,5.89270073 3.36244186,5.93211679 3.40395349,5.99124088 C3.90209302,6.64160584 4.21343023,7.35109489 4.27569767,8.15912409 C4.37947674,9.44014599 4.00587209,10.6226277 3.40395349,11.7459854 C2.84354651,12.7708029 2.20011628,13.7562044 1.6397093,14.7810219 C1.39063953,15.2145985 1.22459302,15.6875912 1.01703488,16.1408759 C0.99627907,16.2 0.934011628,16.2591241 0.8925,16.3182482 C0.830232558,16.2591241 0.767965116,16.219708 0.726453488,16.1605839 C0.311337209,15.2343066 0.20755814,14.2883212 0.373604651,13.2832117 C0.643430233,11.7065693 1.45290698,10.3467153 2.26238372,9.00656934 C2.78127907,8.13941606 3.13412791,7.23284672 3.21715116,6.24744526 C3.23790698,6.12919708 3.21715116,6.01094891 3.21715116,5.89270073 C3.23790698,5.85328467 3.2794186,5.83357664 3.30017442,5.83357664 Z" id="Shape"></path>
                    </g>
                </g>
                <path d="M29.0859375,24.0078125 C28.4505177,24.0078125 27.8945336,23.9335945 27.4179688,23.7851562 C26.9414039,23.636718 26.53646,23.432293 26.203125,23.171875 C25.86979,22.911457 25.6041677,22.6002622 25.40625,22.2382812 C25.2083323,21.8763003 25.072917,21.4791688 25,21.046875 L26.8046875,21.046875 C26.8671878,21.3125013 26.9583327,21.5598947 27.078125,21.7890625 C27.1979173,22.0182303 27.3502595,22.2174471 27.5351562,22.3867188 C27.720053,22.5559904 27.9388008,22.6888016 28.1914062,22.7851562 C28.4440117,22.8815109 28.7369775,22.9296875 29.0703125,22.9296875 C29.2890636,22.9296875 29.5065093,22.9062502 29.7226562,22.859375 C29.9388032,22.8124998 30.1328116,22.7356776 30.3046875,22.6289062 C30.4765634,22.5221349 30.6145828,22.3841154 30.71875,22.2148438 C30.8229172,22.0455721 30.875,21.8359388 30.875,21.5859375 C30.875,21.2734359 30.7942716,20.9947929 30.6328125,20.75 C30.4713534,20.5052071 30.2578138,20.2825531 29.9921875,20.0820312 C29.7265612,19.8815094 29.4244809,19.6953134 29.0859375,19.5234375 C28.7473941,19.3515616 28.4010434,19.1783863 28.046875,19.0039062 C27.6927066,18.8294262 27.3463559,18.6458343 27.0078125,18.453125 C26.6692691,18.2604157 26.3671888,18.0455741 26.1015625,17.8085938 C25.8359362,17.5716134 25.6223966,17.3033869 25.4609375,17.0039062 C25.2994784,16.7044256 25.21875,16.3619811 25.21875,15.9765625 C25.21875,15.5546854 25.311197,15.1653664 25.4960938,14.8085938 C25.6809905,14.4518211 25.9479149,14.1419284 26.296875,13.8789062 C26.6458351,13.6158841 27.0729141,13.410157 27.578125,13.2617188 C28.0833359,13.1132805 28.6588509,13.0390625 29.3046875,13.0390625 C29.8359402,13.0390625 30.3177062,13.1119784 30.75,13.2578125 C31.1822938,13.4036466 31.5638004,13.6054675 31.8945312,13.8632812 C32.2252621,14.121095 32.502603,14.4231754 32.7265625,14.7695312 C32.950522,15.1158871 33.1223952,15.4869772 33.2421875,15.8828125 L31.609375,15.8828125 C31.5156245,15.6328112 31.4062506,15.3932303 31.28125,15.1640625 C31.1562494,14.9348947 31.0026051,14.7343759 30.8203125,14.5625 C30.6380199,14.3906241 30.416668,14.2539068 30.15625,14.1523438 C29.895832,14.0507807 29.5859393,14 29.2265625,14 C28.8880191,14 28.6028657,14.0442704 28.3710938,14.1328125 C28.1393218,14.2213546 27.9531257,14.3346347 27.8125,14.4726562 C27.6718743,14.6106778 27.5703128,14.7643221 27.5078125,14.9335938 C27.4453122,15.1028654 27.4140625,15.2682284 27.4140625,15.4296875 C27.4140625,15.7109389 27.497395,15.9661447 27.6640625,16.1953125 C27.83073,16.4244803 28.0507799,16.6380198 28.3242188,16.8359375 C28.5976576,17.0338552 28.9088524,17.2226554 29.2578125,17.4023438 C29.6067726,17.5820321 29.9622378,17.7630199 30.3242188,17.9453125 C30.6861997,18.1276051 31.0416649,18.3190094 31.390625,18.5195312 C31.7395851,18.7200531 32.0507799,18.940103 32.3242188,19.1796875 C32.5976576,19.419272 32.8177075,19.6848944 32.984375,19.9765625 C33.1510425,20.2682306 33.234375,20.5963523 33.234375,20.9609375 C33.234375,21.3932313 33.1458342,21.794269 32.96875,22.1640625 C32.7916658,22.533856 32.5286476,22.8554674 32.1796875,23.1289062 C31.8307274,23.4023451 31.397138,23.6171867 30.8789062,23.7734375 C30.3606745,23.9296883 29.7630242,24.0078125 29.0859375,24.0078125 Z M40.6640625,13.0390625 L45.6328125,23.8515625 L42.9765625,23.8515625 L41.6484375,20.9609375 L37.53125,20.9609375 L36.140625,23.8515625 L34.375,23.8515625 L39.5390625,13.0390625 L40.6640625,13.0390625 Z M38.0234375,19.9765625 L41.2109375,19.9765625 L39.640625,16.5546875 L38.0234375,19.9765625 Z M47.1171875,13.2578125 L49.71875,13.2578125 L49.71875,20.0703125 C49.71875,20.4765645 49.7825514,20.8593732 49.9101562,21.21875 C50.0377611,21.5781268 50.2200509,21.8919257 50.4570312,22.1601562 C50.6940116,22.4283868 50.9804671,22.6406242 51.3164062,22.796875 C51.6523454,22.9531258 52.0312479,23.03125 52.453125,23.03125 C52.8645854,23.03125 53.2369775,22.9531258 53.5703125,22.796875 C53.9036475,22.6406242 54.1874988,22.4283868 54.421875,22.1601562 C54.6562512,21.8919257 54.8372389,21.5781268 54.9648438,21.21875 C55.0924486,20.8593732 55.15625,20.4765645 55.15625,20.0703125 L55.15625,13.2578125 L56.796875,13.2578125 L56.796875,20.0703125 C56.796875,20.6171902 56.704428,21.1341121 56.5195312,21.6210938 C56.3346345,22.1080754 56.0442728,22.5338523 55.6484375,22.8984375 C55.2526022,23.2630227 54.7447948,23.5520823 54.125,23.765625 C53.5052052,23.9791677 52.760421,24.0859375 51.890625,24.0859375 C51.1145795,24.0859375 50.4283884,23.9791677 49.8320312,23.765625 C49.2356741,23.5520823 48.7369812,23.2617206 48.3359375,22.8945312 C47.9348938,22.5273419 47.6315114,22.0989608 47.4257812,21.609375 C47.2200511,21.1197892 47.1171875,20.5989611 47.1171875,20.046875 L47.1171875,13.2578125 Z M59.453125,13.2578125 L61.1171875,13.2578125 L67.15625,19.9921875 L67.15625,13.2578125 L68.78125,13.2578125 L68.78125,24.0078125 L67.6640625,24.0078125 L61.1015625,16.5703125 L61.1015625,23.8515625 L59.453125,23.8515625 L59.453125,13.2578125 Z M76.5078125,13.0390625 L81.4765625,23.8515625 L78.8203125,23.8515625 L77.4921875,20.9609375 L73.375,20.9609375 L71.984375,23.8515625 L70.21875,23.8515625 L75.3828125,13.0390625 L76.5078125,13.0390625 Z M73.8671875,19.9765625 L77.0546875,19.9765625 L75.484375,16.5546875 L73.8671875,19.9765625 Z M84.328125,13.2578125 L87.015625,20.1015625 L89.7109375,13.140625 L92.4296875,20.0703125 L95.0546875,13.2578125 L96.7890625,13.2578125 L92.625,24.0078125 L91.4453125,24.0078125 L89.2734375,18.484375 L87.140625,24.0078125 L85.9609375,24.0078125 L81.7109375,13.2578125 L84.328125,13.2578125 Z M103.265625,13.0390625 L108.234375,23.8515625 L105.578125,23.8515625 L104.25,20.9609375 L100.132812,20.9609375 L98.7421875,23.8515625 L96.9765625,23.8515625 L102.140625,13.0390625 L103.265625,13.0390625 Z M100.625,19.9765625 L103.8125,19.9765625 L102.242188,16.5546875 L100.625,19.9765625 Z M116.203125,18.6875 L120.601562,18.6875 L120.601562,22.765625 C120.263019,22.9479176 119.924481,23.1145826 119.585937,23.265625 C119.247394,23.4166674 118.885419,23.5468745 118.5,23.65625 C118.114581,23.7656255 117.694013,23.8515622 117.238281,23.9140625 C116.78255,23.9765628 116.270836,24.0078125 115.703125,24.0078125 C114.791662,24.0078125 113.951827,23.8802096 113.183594,23.625 C112.415361,23.3697904 111.751305,23.010419 111.191406,22.546875 C110.631508,22.083331 110.195314,21.5234408 109.882812,20.8671875 C109.570311,20.2109342 109.414062,19.484379 109.414062,18.6875 C109.414062,17.8437458 109.570311,17.0729202 109.882812,16.375 C110.195314,15.6770798 110.630206,15.0781275 111.1875,14.578125 C111.744794,14.0781225 112.407548,13.6901055 113.175781,13.4140625 C113.944014,13.1380195 114.78385,13 115.695312,13 C116.231774,13 116.748695,13.0729159 117.246094,13.21875 C117.743492,13.3645841 118.203123,13.5572905 118.625,13.796875 C119.046877,14.0364595 119.427082,14.3111964 119.765625,14.6210938 C120.104168,14.9309911 120.382811,15.2499984 120.601562,15.578125 L119.53125,16.5546875 C119.307291,16.2369776 119.072918,15.9427097 118.828125,15.671875 C118.583332,15.4010403 118.322918,15.1653656 118.046875,14.9648438 C117.770832,14.7643219 117.475262,14.6067714 117.160156,14.4921875 C116.845051,14.3776036 116.507814,14.3203125 116.148437,14.3203125 C115.60156,14.3203125 115.09245,14.4192698 114.621094,14.6171875 C114.149737,14.8151052 113.740887,15.1002586 113.394531,15.4726562 C113.048175,15.8450539 112.777345,16.3020806 112.582031,16.84375 C112.386718,17.3854194 112.289062,17.9999966 112.289062,18.6875 C112.289062,19.3750034 112.393228,19.9817682 112.601562,20.5078125 C112.809897,21.0338568 113.093748,21.4765607 113.453125,21.8359375 C113.812502,22.1953143 114.233071,22.467447 114.714844,22.6523438 C115.196617,22.8372405 115.713539,22.9296875 116.265625,22.9296875 C116.593752,22.9296875 116.903644,22.8867192 117.195312,22.8007812 C117.486981,22.7148433 117.755207,22.5833342 118,22.40625 L118,19.59375 L116.203125,19.59375 L116.203125,18.6875 Z M128.9375,24.0859375 C128.083329,24.0859375 127.286462,23.947918 126.546875,23.671875 C125.807288,23.395832 125.166669,23.0091171 124.625,22.5117188 C124.083331,22.0143204 123.657554,21.4231805 123.347656,20.7382812 C123.037759,20.053382 122.882812,19.3020874 122.882812,18.484375 C122.882812,17.6822877 123.037759,16.9466179 123.347656,16.2773438 C123.657554,15.6080696 124.083331,15.0338566 124.625,14.5546875 C125.166669,14.0755184 125.807288,13.7031263 126.546875,13.4375 C127.286462,13.1718737 128.083329,13.0390625 128.9375,13.0390625 C129.791671,13.0390625 130.587236,13.1731757 131.324219,13.4414062 C132.061202,13.7096368 132.70182,14.0833309 133.246094,14.5625 C133.790367,15.0416691 134.218748,15.6132779 134.53125,16.2773438 C134.843752,16.9414096 135,17.6692669 135,18.4609375 C135,19.0234403 134.929688,19.5533829 134.789062,20.0507812 C134.648437,20.5481796 134.447918,21.0052063 134.1875,21.421875 C133.927082,21.8385437 133.614585,22.2109359 133.25,22.5390625 C132.885415,22.8671891 132.477867,23.1458322 132.027344,23.375 C131.576821,23.6041678 131.091148,23.7799473 130.570312,23.9023438 C130.049477,24.0247402 129.505211,24.0859375 128.9375,24.0859375 Z M128.9375,23.1953125 C129.453128,23.1953125 129.908852,23.0768241 130.304688,22.8398438 C130.700523,22.6028634 131.031249,22.2760437 131.296875,21.859375 C131.562501,21.4427063 131.764322,20.9466175 131.902344,20.3710938 C132.040365,19.79557 132.109375,19.1666701 132.109375,18.484375 C132.109375,17.8124966 132.040365,17.1979195 131.902344,16.640625 C131.764322,16.0833305 131.562501,15.6041687 131.296875,15.203125 C131.031249,14.8020813 130.700523,14.4895845 130.304688,14.265625 C129.908852,14.0416655 129.453128,13.9296875 128.9375,13.9296875 C128.416664,13.9296875 127.958335,14.0416655 127.5625,14.265625 C127.166665,14.4895845 126.835939,14.8020813 126.570312,15.203125 C126.304686,15.6041687 126.104167,16.0833305 125.96875,16.640625 C125.833333,17.1979195 125.765625,17.8124966 125.765625,18.484375 C125.765625,19.1666701 125.833333,19.79557 125.96875,20.3710938 C126.104167,20.9466175 126.304686,21.4427063 126.570312,21.859375 C126.835939,22.2760437 127.166665,22.6028634 127.5625,22.8398438 C127.958335,23.0768241 128.416664,23.1953125 128.9375,23.1953125 Z M137.328125,13.2578125 L138.992188,13.2578125 L145.03125,19.9921875 L145.03125,13.2578125 L146.65625,13.2578125 L146.65625,24.0078125 L145.539062,24.0078125 L138.976562,16.5703125 L138.976562,23.8515625 L137.328125,23.8515625 L137.328125,13.2578125 Z" id="SAUNAWAGON"></path>
                <path d="M30.0517578,30.9052734 L30.0517578,31.2832031 L26.9799805,31.2832031 L26.9799805,33.3662109 L29.0366211,33.3662109 L29.0366211,33.7441406 L26.9799805,33.7441406 L26.9799805,36.3544922 L30.0517578,36.3544922 L30.0517578,36.7324219 L26,36.7324219 L26,30.9052734 L30.0517578,30.9052734 Z M31.4008789,32.2324219 L32.9916992,35.6381836 L34.5166016,32.2324219 L34.9208984,32.2324219 L32.8950195,36.7807617 L32.5874023,36.7807617 L30.4648438,32.2324219 L31.4008789,32.2324219 Z M37.6850586,36.8291016 C37.3803696,36.8291016 37.0939955,36.7719732 36.8259277,36.6577148 C36.55786,36.5434565 36.3242197,36.3881846 36.125,36.1918945 C35.9257803,35.9956045 35.7683111,35.7648939 35.6525879,35.4997559 C35.5368647,35.2346178 35.4790039,34.9526382 35.4790039,34.6538086 C35.4790039,34.2934552 35.5317378,33.9602066 35.637207,33.6540527 C35.7426763,33.3478989 35.8920889,33.0834972 36.0854492,32.8608398 C36.2788096,32.6381825 36.510985,32.4638678 36.7819824,32.3378906 C37.0529799,32.2119134 37.3554671,32.1489258 37.6894531,32.1489258 C37.9824233,32.1489258 38.2519519,32.2009272 38.4980469,32.3049316 C38.7441419,32.4089361 38.9558097,32.5480948 39.1330566,32.7224121 C39.3103036,32.8967294 39.4479976,33.0981434 39.5461426,33.3266602 C39.6442876,33.5551769 39.6933594,33.7939441 39.6933594,34.0429688 L36.340332,34.0429688 C36.340332,34.3447281 36.37915,34.6245104 36.4567871,34.8823242 C36.5344242,35.140138 36.643554,35.362792 36.7841797,35.550293 C36.9248054,35.7377939 37.0917959,35.8842768 37.2851562,35.9897461 C37.4785166,36.0952154 37.6909168,36.1479492 37.9223633,36.1479492 C38.1157236,36.1479492 38.3017569,36.1164554 38.4804688,36.0534668 C38.6591806,35.9904782 38.8210442,35.9077154 38.9660645,35.8051758 C39.1110847,35.7026362 39.2348628,35.5854499 39.3374023,35.4536133 C39.4399419,35.3217767 39.5117185,35.1855476 39.5527344,35.0449219 L39.8120117,35.1591797 C39.7475583,35.3906262 39.6435554,35.6074209 39.5,35.8095703 C39.3564446,36.0117198 39.1887217,36.1882317 38.9968262,36.3391113 C38.8049307,36.489991 38.5961925,36.6093746 38.3706055,36.6972656 C38.1450184,36.7851567 37.9165051,36.8291016 37.6850586,36.8291016 Z M38.5727539,33.6826172 C38.5727539,33.5126945 38.5427249,33.3544929 38.482666,33.2080078 C38.4226071,33.0615227 38.3398443,32.934815 38.234375,32.8278809 C38.1289057,32.7209467 38.0058601,32.6367191 37.8652344,32.5751953 C37.7246087,32.5136716 37.5737313,32.4829102 37.4125977,32.4829102 C37.2778314,32.4829102 37.1489264,32.5129392 37.0258789,32.572998 C36.9028314,32.6330569 36.7929692,32.7165522 36.6962891,32.8234863 C36.5996089,32.9304205 36.5197757,33.0571282 36.4567871,33.2036133 C36.3937985,33.3500984 36.3564454,33.5082999 36.3447266,33.6782227 L38.5727539,33.6826172 Z M41.7236328,32.1489258 L41.9785156,32.1489258 L41.9785156,33.0585938 C42.2509779,32.7539047 42.5336899,32.5261238 42.8266602,32.3752441 C43.1196304,32.2243645 43.4169907,32.1489258 43.71875,32.1489258 C43.8769539,32.1489258 44.0241692,32.1840817 44.1604004,32.2543945 C44.2966315,32.3247074 44.4160151,32.4213861 44.5185547,32.5444336 C44.6210943,32.6674811 44.7016599,32.8117668 44.7602539,32.9772949 C44.8188479,33.1428231 44.8481445,33.319335 44.8481445,33.5068359 L44.8481445,36.7324219 L43.9560547,36.7324219 L43.9560547,33.6606445 C43.9560547,33.5112297 43.9384767,33.3801275 43.9033203,33.267334 C43.8681639,33.1545405 43.8183597,33.060059 43.7539062,32.9838867 C43.6894528,32.9077145 43.6140141,32.8498537 43.5275879,32.8103027 C43.4411617,32.7707518 43.3452154,32.7509766 43.2397461,32.7509766 C43.1459956,32.7509766 43.0463872,32.7670897 42.940918,32.7993164 C42.8354487,32.8315431 42.7277838,32.8762204 42.6179199,32.9333496 C42.5080561,32.9904788 42.3989263,33.0585934 42.2905273,33.1376953 C42.1821284,33.2167973 42.0781255,33.304687 41.9785156,33.4013672 L41.9785156,36.7324219 L41.0820312,36.7324219 L41.0820312,32.3994141 L41.7236328,32.1489258 Z M47.375,30.703125 L47.6298828,30.703125 L47.6298828,32.2324219 L48.6318359,32.2324219 L48.6318359,32.6147461 L47.6298828,32.6147461 L47.6298828,35.7832031 C47.6298828,35.8505863 47.6423339,35.9135739 47.6672363,35.972168 C47.6921388,36.030762 47.7258299,36.082031 47.7683105,36.1259766 C47.8107912,36.1699221 47.8613278,36.2043456 47.9199219,36.229248 C47.9785159,36.2541505 48.0429684,36.2666016 48.1132812,36.2666016 C48.2128911,36.2666016 48.3037105,36.2416995 48.3857422,36.1918945 C48.4677738,36.1420896 48.5395505,36.0805668 48.6010742,36.0073242 L48.8251953,36.1567383 C48.7021478,36.3647471 48.5424815,36.528808 48.3461914,36.6489258 C48.1499014,36.7690436 47.9067397,36.8291016 47.6166992,36.8291016 C47.4672844,36.8291016 47.3369146,36.8034671 47.2255859,36.7521973 C47.1142573,36.7009275 47.0227054,36.6291509 46.9509277,36.5368652 C46.87915,36.4445796 46.8256838,36.3347174 46.7905273,36.2072754 C46.7553709,36.0798333 46.737793,35.9384773 46.737793,35.7832031 L46.737793,32.6147461 L45.9555664,32.6147461 L45.9555664,32.4477539 L46.737793,32.2324219 L46.737793,30.9536133 L47.375,30.703125 Z M51.3608398,36.5170898 C51.4809576,36.5170898 51.5922846,36.4987795 51.6948242,36.4621582 C51.7973638,36.4255369 51.885986,36.3764652 51.9606934,36.3149414 C52.0354008,36.2534177 52.0932615,36.1823734 52.1342773,36.1018066 C52.1752932,36.0212398 52.1958008,35.938477 52.1958008,35.8535156 C52.1958008,35.7158196 52.1613773,35.5957036 52.0925293,35.4931641 C52.0236813,35.3906245 51.9328619,35.2990727 51.8200684,35.2185059 C51.7072748,35.1379391 51.5791023,35.0639652 51.4355469,34.996582 C51.2919915,34.9291989 51.1455086,34.8596195 50.9960938,34.7878418 C50.8466789,34.7160641 50.700196,34.639893 50.5566406,34.5593262 C50.4130852,34.4787594 50.2849127,34.3842779 50.1721191,34.2758789 C50.0593256,34.1674799 49.9685062,34.042237 49.8996582,33.9001465 C49.8308102,33.7580559 49.7963867,33.5917978 49.7963867,33.4013672 C49.7963867,33.2226554 49.8344723,33.0563973 49.9106445,32.9025879 C49.9868168,32.7487785 50.0930169,32.6162115 50.229248,32.5048828 C50.3654792,32.3935541 50.5273428,32.3063968 50.7148438,32.2434082 C50.9023447,32.1804196 51.1074208,32.1489258 51.3300781,32.1489258 C51.4794929,32.1489258 51.6186517,32.1591796 51.7475586,32.1796875 C51.8764655,32.2001954 52.0031732,32.2397458 52.1276855,32.2983398 C52.2521979,32.3569339 52.3759759,32.4411616 52.4990234,32.5510254 C52.6220709,32.6608892 52.7524407,32.8037101 52.8901367,32.9794922 L52.5605469,33.2739258 C52.3906242,32.9956041 52.2009288,32.7883308 51.9914551,32.6520996 C51.7819814,32.5158685 51.5585949,32.4477539 51.3212891,32.4477539 C51.1923822,32.4477539 51.0751958,32.4631346 50.9697266,32.4938965 C50.8642573,32.5246584 50.7741703,32.5671384 50.6994629,32.6213379 C50.6247555,32.6755374 50.5661623,32.7392574 50.5236816,32.8125 C50.481201,32.8857426 50.4599609,32.9633785 50.4599609,33.0454102 C50.4599609,33.1801765 50.4973141,33.2973628 50.5720215,33.3969727 C50.6467289,33.4965825 50.7456049,33.5866695 50.8686523,33.6672363 C50.9916998,33.7478031 51.131591,33.821777 51.2883301,33.8891602 C51.4450691,33.9565433 51.6047355,34.0253903 51.767334,34.0957031 C51.9299325,34.166016 52.0895988,34.2421871 52.2463379,34.3242188 C52.403077,34.4062504 52.5429681,34.5007319 52.6660156,34.607666 C52.7890631,34.7146001 52.8879391,34.8383782 52.9626465,34.9790039 C53.0373539,35.1196296 53.074707,35.2836905 53.074707,35.4711914 C53.074707,35.661622 53.0395511,35.8395988 52.9692383,36.005127 C52.8989254,36.1706551 52.7927253,36.3142084 52.6506348,36.435791 C52.5085442,36.5573737 52.3305675,36.65332 52.1166992,36.7236328 C51.902831,36.7939457 51.6508804,36.8291016 51.3608398,36.8291016 C51.2290032,36.8291016 51.0935066,36.8188478 50.9543457,36.7983398 C50.8151849,36.7778319 50.6752937,36.7375491 50.534668,36.6774902 C50.3940423,36.6174313 50.2534187,36.5332037 50.112793,36.4248047 C49.9721673,36.3164057 49.8344733,36.1743173 49.699707,35.9985352 L50.0644531,35.6689453 C50.1728521,35.8212898 50.276855,35.9509272 50.3764648,36.0578613 C50.4760747,36.1647955 50.5778803,36.2526852 50.6818848,36.3215332 C50.7858892,36.3903812 50.8928217,36.4401854 51.0026855,36.4709473 C51.1125494,36.5017091 51.2319329,36.5170898 51.3608398,36.5170898 Z M57.6274414,33.8408203 C57.4809563,33.9257817 57.3454596,34.0195307 57.2209473,34.1220703 C57.0964349,34.2246099 56.98877,34.3337397 56.8979492,34.4494629 C56.8071285,34.5651861 56.7360842,34.6874994 56.6848145,34.8164062 C56.6335447,34.9453131 56.6079102,35.0800774 56.6079102,35.2207031 C56.6079102,35.378907 56.6335447,35.5268548 56.6848145,35.6645508 C56.7360842,35.8022468 56.8085933,35.9216304 56.9023438,36.0227051 C56.9960942,36.1237798 57.1110833,36.203613 57.2473145,36.262207 C57.3835456,36.3208011 57.5366202,36.3500977 57.706543,36.3500977 C57.9379894,36.3500977 58.1584462,36.2988286 58.3679199,36.1962891 C58.5773936,36.0937495 58.7773428,35.9677742 58.9677734,35.8183594 C58.8359368,35.674804 58.7092291,35.5224617 58.5876465,35.3613281 C58.4660638,35.2001945 58.3496099,35.0354012 58.2382812,34.8669434 C58.1269526,34.6984855 58.0207525,34.5271005 57.9196777,34.3527832 C57.818603,34.1784659 57.7211919,34.0078133 57.6274414,33.8408203 Z M58.2602539,33.1948242 C58.4125984,33.1157223 58.5546868,33.0336918 58.6865234,32.9487305 C58.81836,32.8637691 58.9333491,32.7722173 59.0314941,32.6740723 C59.1296392,32.5759272 59.2065427,32.4675299 59.262207,32.348877 C59.3178714,32.230224 59.3457031,32.0991218 59.3457031,31.9555664 C59.3457031,31.8149407 59.3273928,31.6896978 59.2907715,31.579834 C59.2541502,31.4699702 59.204346,31.3762211 59.1413574,31.298584 C59.0783688,31.2209469 59.0051274,31.1616213 58.9216309,31.1206055 C58.8381343,31.0795896 58.7480474,31.059082 58.6513672,31.059082 C58.5429682,31.059082 58.4433598,31.0869138 58.3525391,31.1425781 C58.2617183,31.1982425 58.1833499,31.2707515 58.1174316,31.3601074 C58.0515133,31.4494633 57.9995119,31.5490717 57.9614258,31.6589355 C57.9233397,31.7687994 57.9042969,31.8779291 57.9042969,31.9863281 C57.9042969,32.1621103 57.9357907,32.3554677 57.9987793,32.5664062 C58.0617679,32.7773448 58.1489252,32.9868154 58.2602539,33.1948242 Z M60.8134766,33.590332 C60.7783201,33.7983409 60.7351077,33.9843742 60.6838379,34.1484375 C60.6325681,34.3125008 60.5710453,34.4670403 60.4992676,34.6120605 C60.4274899,34.7570808 60.3439946,34.8984368 60.2487793,35.0361328 C60.153564,35.1738288 60.045899,35.3188469 59.9257812,35.4711914 C60.1513683,35.6997082 60.3645009,35.8806146 60.5651855,36.013916 C60.7658701,36.1472175 60.951171,36.2138672 61.1210938,36.2138672 C61.3408214,36.2138672 61.5283195,36.1706547 61.6835938,36.0842285 C61.838868,35.9978023 61.9633784,35.8447277 62.0571289,35.625 L62.2241211,35.6865234 C62.186035,35.8769541 62.1237797,36.0454094 62.0373535,36.1918945 C61.9509273,36.3383796 61.8447272,36.4621577 61.71875,36.5632324 C61.5927728,36.6643071 61.4492196,36.7404783 61.2880859,36.791748 C61.1269523,36.8430178 60.9526377,36.8686523 60.7651367,36.8686523 C60.5249011,36.8686523 60.2780774,36.8005378 60.0246582,36.6643066 C59.771239,36.5280755 59.5229504,36.3457043 59.2797852,36.1171875 C58.9926743,36.3398449 58.6799333,36.5207513 58.3415527,36.6599121 C58.0031721,36.799073 57.6376973,36.8686523 57.2451172,36.8686523 C56.9697252,36.8686523 56.7353525,36.8378909 56.5419922,36.7763672 C56.3486318,36.7148434 56.1904303,36.6284185 56.0673828,36.5170898 C55.9443353,36.4057612 55.8542483,36.2724617 55.7971191,36.1171875 C55.7399899,35.9619133 55.7114258,35.7905283 55.7114258,35.6030273 C55.7114258,35.3364244 55.7619624,35.0998545 55.8630371,34.8933105 C55.9641118,34.6867665 56.0974113,34.5014657 56.2629395,34.3374023 C56.4284676,34.173339 56.6166982,34.0275885 56.8276367,33.9001465 C57.0385753,33.7727044 57.25537,33.6547857 57.4780273,33.5463867 C57.3549799,33.2885729 57.2575687,33.0512706 57.185791,32.8344727 C57.1140133,32.6176747 57.078125,32.4345711 57.078125,32.2851562 C57.078125,32.0917959 57.1096188,31.9042978 57.1726074,31.7226562 C57.235596,31.5410147 57.3308099,31.3798835 57.458252,31.2392578 C57.585694,31.0986321 57.744628,30.9858403 57.9350586,30.9008789 C58.1254892,30.8159175 58.3466784,30.7734375 58.5986328,30.7734375 C58.7861337,30.7734375 58.9626457,30.8005368 59.1281738,30.8547363 C59.293702,30.9089358 59.4379877,30.9880366 59.5610352,31.092041 C59.6840826,31.1960454 59.7814938,31.3234856 59.8532715,31.4743652 C59.9250492,31.6252449 59.9609375,31.7958975 59.9609375,31.9863281 C59.9609375,32.1767588 59.9155278,32.3437493 59.824707,32.4873047 C59.7338863,32.6308601 59.6152351,32.7597651 59.46875,32.8740234 C59.3222649,32.9882818 59.1560068,33.0922847 58.9699707,33.1860352 C58.7839346,33.2797856 58.5957041,33.3720699 58.4052734,33.4628906 C58.5576179,33.7529311 58.741454,34.0407701 58.9567871,34.326416 C59.1721202,34.612062 59.4042956,34.8925767 59.6533203,35.1679688 C59.9433608,34.8398421 60.1608879,34.5366225 60.3059082,34.2583008 C60.4509285,33.9799791 60.5468748,33.7368174 60.59375,33.5288086 L60.8134766,33.590332 Z M65.1508789,30.9052734 L67.3525391,35.5415039 L69.3959961,30.9052734 L69.8618164,30.9052734 L67.2163086,36.8686523 L66.9614258,36.8686523 L64.1181641,30.9052734 L65.1508789,30.9052734 Z M72.5732422,36.8291016 C72.2685532,36.8291016 71.9821791,36.7719732 71.7141113,36.6577148 C71.4460436,36.5434565 71.2124033,36.3881846 71.0131836,36.1918945 C70.8139638,35.9956045 70.6564947,35.7648939 70.5407715,35.4997559 C70.4250482,35.2346178 70.3671875,34.9526382 70.3671875,34.6538086 C70.3671875,34.2934552 70.4199213,33.9602066 70.5253906,33.6540527 C70.6308599,33.3478989 70.7802725,33.0834972 70.9736328,32.8608398 C71.1669932,32.6381825 71.3991686,32.4638678 71.670166,32.3378906 C71.9411635,32.2119134 72.2436507,32.1489258 72.5776367,32.1489258 C72.8706069,32.1489258 73.1401355,32.2009272 73.3862305,32.3049316 C73.6323254,32.4089361 73.8439933,32.5480948 74.0212402,32.7224121 C74.1984872,32.8967294 74.3361811,33.0981434 74.4343262,33.3266602 C74.5324712,33.5551769 74.581543,33.7939441 74.581543,34.0429688 L71.2285156,34.0429688 C71.2285156,34.3447281 71.2673336,34.6245104 71.3449707,34.8823242 C71.4226078,35.140138 71.5317376,35.362792 71.6723633,35.550293 C71.812989,35.7377939 71.9799795,35.8842768 72.1733398,35.9897461 C72.3667002,36.0952154 72.5791004,36.1479492 72.8105469,36.1479492 C73.0039072,36.1479492 73.1899405,36.1164554 73.3686523,36.0534668 C73.5473642,35.9904782 73.7092278,35.9077154 73.854248,35.8051758 C73.9992683,35.7026362 74.1230464,35.5854499 74.2255859,35.4536133 C74.3281255,35.3217767 74.3999021,35.1855476 74.440918,35.0449219 L74.7001953,35.1591797 C74.6357419,35.3906262 74.531739,35.6074209 74.3881836,35.8095703 C74.2446282,36.0117198 74.0769053,36.1882317 73.8850098,36.3391113 C73.6931143,36.489991 73.4843761,36.6093746 73.2587891,36.6972656 C73.033202,36.7851567 72.8046887,36.8291016 72.5732422,36.8291016 Z M73.4609375,33.6826172 C73.4609375,33.5126945 73.4309085,33.3544929 73.3708496,33.2080078 C73.3107907,33.0615227 73.2280279,32.934815 73.1225586,32.8278809 C73.0170893,32.7209467 72.8940437,32.6367191 72.753418,32.5751953 C72.6127923,32.5136716 72.4619149,32.4829102 72.3007812,32.4829102 C72.166015,32.4829102 72.03711,32.5129392 71.9140625,32.572998 C71.791015,32.6330569 71.6811528,32.7165522 71.5844727,32.8234863 C71.4877925,32.9304205 71.4079593,33.0571282 71.3449707,33.2036133 C71.2819821,33.3500984 71.244629,33.5082999 71.2329102,33.6782227 L73.4609375,33.6826172 Z M76.6074219,32.1489258 L76.7436523,32.1489258 L76.8623047,33.0673828 C76.9326175,32.9326165 77.0205073,32.8095709 77.1259766,32.6982422 C77.2314458,32.5869135 77.3478998,32.4902348 77.4753418,32.4082031 C77.6027838,32.3261715 77.7375481,32.2624514 77.8796387,32.217041 C78.0217292,32.1716306 78.1660149,32.1489258 78.3125,32.1489258 C78.4443366,32.1489258 78.573974,32.1665037 78.701416,32.2016602 C78.8288581,32.2368166 78.9482416,32.2924801 79.0595703,32.3686523 L78.7783203,33.1201172 C78.7197263,33.0556637 78.6582034,33.0036623 78.59375,32.9641113 C78.5292966,32.9245603 78.4633792,32.8937989 78.3959961,32.8718262 C78.3286129,32.8498534 78.259766,32.8359375 78.1894531,32.8300781 C78.1191403,32.8242187 78.0488285,32.8212891 77.9785156,32.8212891 C77.8671869,32.8212891 77.7580572,32.8374022 77.651123,32.8696289 C77.5441889,32.9018556 77.4423833,32.9494626 77.3457031,33.0124512 C77.249023,33.0754398 77.1596684,33.1560054 77.0776367,33.2541504 C76.9956051,33.3522954 76.9238284,33.4672845 76.8623047,33.5991211 L76.8623047,36.7324219 L75.9702148,36.7324219 L75.9702148,32.3950195 L76.6074219,32.1489258 Z M80.5009766,32.1489258 L80.7558594,32.1489258 L80.7558594,33.0805664 C80.8701178,32.9575189 80.9990227,32.8396002 81.1425781,32.7268066 C81.2861335,32.6140131 81.4340813,32.5144047 81.5864258,32.4279785 C81.7387703,32.3415523 81.8911125,32.2734377 82.043457,32.2236328 C82.1958015,32.1738279 82.3408196,32.1489258 82.4785156,32.1489258 C82.6103522,32.1489258 82.7443841,32.172363 82.8806152,32.2192383 C83.0168464,32.2661135 83.1428217,32.3320308 83.2585449,32.4169922 C83.3742682,32.5019535 83.4738765,32.6022943 83.557373,32.7180176 C83.6408696,32.8337408 83.6958006,32.9604485 83.722168,33.0981445 C83.7954105,32.9663079 83.8972161,32.8425299 84.0275879,32.7268066 C84.1579596,32.6110834 84.3022453,32.5107426 84.4604492,32.4257812 C84.6186531,32.3408199 84.7863761,32.2734377 84.963623,32.2236328 C85.14087,32.1738279 85.3144523,32.1489258 85.484375,32.1489258 C85.6542977,32.1489258 85.8132317,32.1862789 85.9611816,32.2609863 C86.1091316,32.3356937 86.238769,32.4367669 86.3500977,32.564209 C86.4614263,32.691651 86.5493161,32.8410636 86.6137695,33.0124512 C86.678223,33.1838387 86.7104492,33.36621 86.7104492,33.5595703 L86.7104492,36.7324219 L85.8183594,36.7324219 L85.8183594,33.6826172 C85.8183594,33.55664 85.7971194,33.4372564 85.7546387,33.3244629 C85.712158,33.2116694 85.6542972,33.1127934 85.5810547,33.027832 C85.5078121,32.9428707 85.4221196,32.8754885 85.3239746,32.8256836 C85.2258296,32.7758787 85.1225591,32.7509766 85.0141602,32.7509766 C84.8911127,32.7509766 84.7658698,32.7678221 84.6384277,32.8015137 C84.5109857,32.8352052 84.3901373,32.8813474 84.2758789,32.9399414 C84.1616205,32.9985354 84.0576177,33.06665 83.9638672,33.1442871 C83.8701167,33.2219242 83.7954104,33.3046871 83.7397461,33.3925781 L83.7397461,36.7324219 L82.8476562,36.7324219 L82.8476562,33.6826172 C82.8476562,33.55664 82.8256838,33.4372564 82.7817383,33.3244629 C82.7377927,33.2116694 82.6791996,33.1127934 82.605957,33.027832 C82.5327145,32.9428707 82.4462896,32.8754885 82.3466797,32.8256836 C82.2470698,32.7758787 82.1430669,32.7509766 82.034668,32.7509766 C81.9204096,32.7509766 81.8024908,32.7685545 81.6809082,32.8037109 C81.5593256,32.8388674 81.4406744,32.8857419 81.3249512,32.9443359 C81.2092279,33.00293 81.101563,33.0710445 81.0019531,33.1486816 C80.9023433,33.2263187 80.8203128,33.3076168 80.7558594,33.3925781 L80.7558594,36.7324219 L79.859375,36.7324219 L79.859375,32.3994141 L80.5009766,32.1489258 Z M88.362793,32.4038086 L88.9912109,32.1489258 L89.2504883,32.1489258 L89.2504883,36.7324219 L88.362793,36.7324219 L88.362793,32.4038086 Z M88.2924805,30.5097656 C88.2924805,30.4394528 88.3056639,30.3735355 88.3320312,30.3120117 C88.3583986,30.250488 88.3950193,30.1962893 88.4418945,30.1494141 C88.4887698,30.1025388 88.5429684,30.0659181 88.6044922,30.0395508 C88.6660159,30.0131835 88.7319332,30 88.8022461,30 C88.8725589,30 88.9384763,30.0131835 89,30.0395508 C89.0615237,30.0659181 89.1157224,30.1025388 89.1625977,30.1494141 C89.2094729,30.1962893 89.2460936,30.250488 89.2724609,30.3120117 C89.2988283,30.3735355 89.3120117,30.4394528 89.3120117,30.5097656 C89.3120117,30.5800785 89.2988283,30.6459958 89.2724609,30.7075195 C89.2460936,30.7690433 89.2094729,30.823242 89.1625977,30.8701172 C89.1157224,30.9169924 89.0615237,30.9536131 89,30.9799805 C88.9384763,31.0063478 88.8725589,31.0195312 88.8022461,31.0195312 C88.7319332,31.0195312 88.6660159,31.0063478 88.6044922,30.9799805 C88.5429684,30.9536131 88.4887698,30.9169924 88.4418945,30.8701172 C88.3950193,30.823242 88.3583986,30.7690433 88.3320312,30.7075195 C88.3056639,30.6459958 88.2924805,30.5800785 88.2924805,30.5097656 Z M92.796875,36.8291016 C92.492186,36.8291016 92.2058119,36.7719732 91.9377441,36.6577148 C91.6696764,36.5434565 91.4360362,36.3881846 91.2368164,36.1918945 C91.0375967,35.9956045 90.8801275,35.7648939 90.7644043,35.4997559 C90.6486811,35.2346178 90.5908203,34.9526382 90.5908203,34.6538086 C90.5908203,34.2934552 90.6435542,33.9602066 90.7490234,33.6540527 C90.8544927,33.3478989 91.0039053,33.0834972 91.1972656,32.8608398 C91.390626,32.6381825 91.6228014,32.4638678 91.8937988,32.3378906 C92.1647963,32.2119134 92.4672835,32.1489258 92.8012695,32.1489258 C93.0942397,32.1489258 93.3637683,32.2009272 93.6098633,32.3049316 C93.8559583,32.4089361 94.0676261,32.5480948 94.244873,32.7224121 C94.42212,32.8967294 94.559814,33.0981434 94.657959,33.3266602 C94.756104,33.5551769 94.8051758,33.7939441 94.8051758,34.0429688 L91.4521484,34.0429688 C91.4521484,34.3447281 91.4909664,34.6245104 91.5686035,34.8823242 C91.6462406,35.140138 91.7553704,35.362792 91.8959961,35.550293 C92.0366218,35.7377939 92.2036123,35.8842768 92.3969727,35.9897461 C92.590333,36.0952154 92.8027332,36.1479492 93.0341797,36.1479492 C93.22754,36.1479492 93.4135733,36.1164554 93.5922852,36.0534668 C93.770997,35.9904782 93.9328606,35.9077154 94.0778809,35.8051758 C94.2229011,35.7026362 94.3466792,35.5854499 94.4492188,35.4536133 C94.5517583,35.3217767 94.623535,35.1855476 94.6645508,35.0449219 L94.9238281,35.1591797 C94.8593747,35.3906262 94.7553718,35.6074209 94.6118164,35.8095703 C94.468261,36.0117198 94.3005381,36.1882317 94.1086426,36.3391113 C93.9167471,36.489991 93.7080089,36.6093746 93.4824219,36.6972656 C93.2568348,36.7851567 93.0283215,36.8291016 92.796875,36.8291016 Z M93.6845703,33.6826172 C93.6845703,33.5126945 93.6545413,33.3544929 93.5944824,33.2080078 C93.5344235,33.0615227 93.4516607,32.934815 93.3461914,32.8278809 C93.2407221,32.7209467 93.1176765,32.6367191 92.9770508,32.5751953 C92.8364251,32.5136716 92.6855477,32.4829102 92.5244141,32.4829102 C92.3896478,32.4829102 92.2607428,32.5129392 92.1376953,32.572998 C92.0146478,32.6330569 91.9047856,32.7165522 91.8081055,32.8234863 C91.7114253,32.9304205 91.6315921,33.0571282 91.5686035,33.2036133 C91.5056149,33.3500984 91.4682618,33.5082999 91.456543,33.6782227 L93.6845703,33.6826172 Z M97.1386719,30.703125 L97.3935547,30.703125 L97.3935547,32.2324219 L98.3955078,32.2324219 L98.3955078,32.6147461 L97.3935547,32.6147461 L97.3935547,35.7832031 C97.3935547,35.8505863 97.4060057,35.9135739 97.4309082,35.972168 C97.4558107,36.030762 97.4895017,36.082031 97.5319824,36.1259766 C97.5744631,36.1699221 97.6249997,36.2043456 97.6835938,36.229248 C97.7421878,36.2541505 97.8066403,36.2666016 97.8769531,36.2666016 C97.976563,36.2666016 98.0673824,36.2416995 98.1494141,36.1918945 C98.2314457,36.1420896 98.3032223,36.0805668 98.3647461,36.0073242 L98.5888672,36.1567383 C98.4658197,36.3647471 98.3061533,36.528808 98.1098633,36.6489258 C97.9135732,36.7690436 97.6704116,36.8291016 97.3803711,36.8291016 C97.2309563,36.8291016 97.1005865,36.8034671 96.9892578,36.7521973 C96.8779291,36.7009275 96.7863773,36.6291509 96.7145996,36.5368652 C96.6428219,36.4445796 96.5893556,36.3347174 96.5541992,36.2072754 C96.5190428,36.0798333 96.5014648,35.9384773 96.5014648,35.7832031 L96.5014648,32.6147461 L95.7192383,32.6147461 L95.7192383,32.4477539 L96.5014648,32.2324219 L96.5014648,30.9536133 L97.1386719,30.703125 Z M100.663086,32.2324219 L100.663086,35.4360352 C100.663086,35.5473638 100.68872,35.6528315 100.73999,35.7524414 C100.79126,35.8520513 100.862304,35.9384762 100.953125,36.0117188 C101.043946,36.0849613 101.148681,36.1428221 101.267334,36.1853027 C101.385987,36.2277834 101.514159,36.2490234 101.651855,36.2490234 C101.739747,36.2490234 101.834228,36.2299807 101.935303,36.1918945 C102.036377,36.1538084 102.135253,36.101807 102.231934,36.0358887 C102.328614,35.9699704 102.418701,35.8923344 102.502197,35.8029785 C102.585694,35.7136226 102.656738,35.6191411 102.715332,35.5195312 L102.715332,32.2324219 L103.603027,32.2324219 L103.603027,36.7324219 L102.715332,36.7324219 L102.715332,35.8886719 C102.63623,36.0175788 102.537354,36.1391596 102.418701,36.253418 C102.300048,36.3676764 102.171876,36.4672847 102.03418,36.5522461 C101.896484,36.6372075 101.754395,36.7045896 101.60791,36.7543945 C101.461425,36.8041995 101.322266,36.8291016 101.19043,36.8291016 C100.99414,36.8291016 100.809571,36.7924808 100.636719,36.7192383 C100.463866,36.6459957 100.312989,36.5463873 100.184082,36.4204102 C100.055175,36.294433 99.9533695,36.1464852 99.8786621,35.9765625 C99.8039547,35.8066398 99.7666016,35.6264658 99.7666016,35.4360352 L99.7666016,32.2324219 L100.663086,32.2324219 Z M105.82666,32.1489258 L106.081543,32.1489258 L106.081543,33.0585938 C106.354005,32.7539047 106.636717,32.5261238 106.929688,32.3752441 C107.222658,32.2243645 107.520018,32.1489258 107.821777,32.1489258 C107.979981,32.1489258 108.127197,32.1840817 108.263428,32.2543945 C108.399659,32.3247074 108.519042,32.4213861 108.621582,32.5444336 C108.724122,32.6674811 108.804687,32.8117668 108.863281,32.9772949 C108.921875,33.1428231 108.951172,33.319335 108.951172,33.5068359 L108.951172,36.7324219 L108.059082,36.7324219 L108.059082,33.6606445 C108.059082,33.5112297 108.041504,33.3801275 108.006348,33.267334 C107.971191,33.1545405 107.921387,33.060059 107.856934,32.9838867 C107.79248,32.9077145 107.717041,32.8498537 107.630615,32.8103027 C107.544189,32.7707518 107.448243,32.7509766 107.342773,32.7509766 C107.249023,32.7509766 107.149415,32.7670897 107.043945,32.7993164 C106.938476,32.8315431 106.830811,32.8762204 106.720947,32.9333496 C106.611083,32.9904788 106.501954,33.0585934 106.393555,33.1376953 C106.285156,33.2167973 106.181153,33.304687 106.081543,33.4013672 L106.081543,36.7324219 L105.185059,36.7324219 L105.185059,32.3994141 L105.82666,32.1489258 Z M114.769531,32.4697266 L114.769531,32.8476562 L113.916992,32.8476562 C114.001954,32.967774 114.071533,33.1047356 114.125732,33.2585449 C114.179932,33.4123543 114.207031,33.5639641 114.207031,33.7133789 C114.207031,33.9477551 114.155762,34.1601553 114.053223,34.3505859 C113.950683,34.5410166 113.807862,34.7050774 113.624756,34.8427734 C113.441649,34.9804694 113.222658,35.0866695 112.967773,35.161377 C112.712889,35.2360844 112.431642,35.2734375 112.124023,35.2734375 C112.009765,35.2734375 111.893311,35.2646485 111.774658,35.2470703 C111.656005,35.2294921 111.552735,35.2060548 111.464844,35.1767578 C111.379882,35.2470707 111.308106,35.3283687 111.249512,35.4206543 C111.190918,35.5129399 111.161621,35.6059566 111.161621,35.699707 C111.161621,35.7905278 111.210693,35.8623044 111.308838,35.9150391 C111.406983,35.9677737 111.546874,35.9985351 111.728516,36.0073242 L113.389648,36.0820312 C113.656251,36.0937501 113.878173,36.1252439 114.05542,36.1765137 C114.232667,36.2277835 114.374023,36.2966304 114.479492,36.3830566 C114.584961,36.4694829 114.659668,36.5712885 114.703613,36.6884766 C114.747559,36.8056646 114.769531,36.9374993 114.769531,37.0839844 C114.769531,37.3447279 114.708741,37.5812978 114.587158,37.7937012 C114.465576,38.0061046 114.290528,38.187011 114.062012,38.3364258 C113.833495,38.4858406 113.554445,38.6015621 113.224854,38.6835938 C112.895262,38.7656254 112.522463,38.8066406 112.106445,38.8066406 C111.734373,38.8066406 111.409181,38.7846682 111.130859,38.7407227 C110.852538,38.6967771 110.621095,38.6345219 110.436523,38.5539551 C110.251952,38.4733883 110.114258,38.3767095 110.023438,38.263916 C109.932617,38.1511225 109.887207,38.0244148 109.887207,37.8837891 C109.887207,37.7607416 109.917968,37.6428228 109.979492,37.5300293 C110.041016,37.4172358 110.120117,37.3088384 110.216797,37.204834 C110.313477,37.1008296 110.42041,37.0004888 110.537598,36.9038086 C110.654786,36.8071284 110.770507,36.7148442 110.884766,36.6269531 C110.802734,36.6005858 110.72583,36.569092 110.654053,36.5324707 C110.582275,36.4958494 110.52002,36.4541018 110.467285,36.4072266 C110.414551,36.3603513 110.373535,36.3098147 110.344238,36.2556152 C110.314941,36.2014157 110.300293,36.143555 110.300293,36.0820312 C110.300293,35.9912105 110.324463,35.896729 110.372803,35.798584 C110.421143,35.700439 110.48706,35.6066899 110.570557,35.517334 C110.654053,35.4279781 110.750732,35.3459476 110.860596,35.2712402 C110.97046,35.1965328 111.088378,35.1372073 111.214355,35.0932617 C110.912596,34.9643548 110.676026,34.7849133 110.504639,34.5549316 C110.333251,34.32495 110.247559,34.0605484 110.247559,33.7617188 C110.247559,33.5419911 110.298095,33.3339854 110.39917,33.1376953 C110.500245,32.9414053 110.640136,32.7700203 110.818848,32.6235352 C110.997559,32.47705 111.206298,32.3613285 111.445068,32.2763672 C111.683839,32.1914058 111.942381,32.1489258 112.220703,32.1489258 C112.355469,32.1489258 112.488036,32.1577148 112.618408,32.175293 C112.74878,32.1928712 112.870361,32.2163084 112.983154,32.2456055 C113.095948,32.2749025 113.195556,32.3085936 113.281982,32.3466797 C113.368409,32.3847658 113.436523,32.425781 113.486328,32.4697266 L114.769531,32.4697266 Z M111.161621,36.6972656 C111.094238,36.7470706 111.035645,36.8027341 110.98584,36.8642578 C110.936035,36.9257816 110.893555,36.990234 110.858398,37.0576172 C110.823242,37.1250003 110.796875,37.1931149 110.779297,37.2619629 C110.761719,37.3308109 110.75293,37.3959958 110.75293,37.4575195 C110.75293,37.5571294 110.788086,37.6523433 110.858398,37.7431641 C110.928711,37.8339848 111.034179,37.9145504 111.174805,37.9848633 C111.31543,38.0551761 111.491942,38.1108396 111.704346,38.1518555 C111.916749,38.1928713 112.163573,38.2133789 112.444824,38.2133789 C112.743654,38.2133789 113.010985,38.1899416 113.246826,38.1430664 C113.482667,38.0961912 113.683349,38.0339359 113.848877,37.9562988 C114.014405,37.8786617 114.14038,37.7922368 114.226807,37.6970215 C114.313233,37.6018062 114.356445,37.5058599 114.356445,37.4091797 C114.356445,37.3095698 114.330811,37.2231449 114.279541,37.1499023 C114.228271,37.0766598 114.154297,37.0166018 114.057617,36.9697266 C113.960937,36.9228513 113.843751,36.8876954 113.706055,36.8642578 C113.568359,36.8408202 113.413087,36.8291016 113.240234,36.8291016 C113.023436,36.8291016 112.805177,36.8239747 112.585449,36.8137207 C112.365722,36.8034667 112.160645,36.7917481 111.970215,36.7785645 C111.779784,36.7653808 111.612794,36.7507325 111.469238,36.7346191 C111.325683,36.7185058 111.223145,36.7060547 111.161621,36.6972656 Z M112.273438,35.0405273 C112.399415,35.0405273 112.520996,35.0119632 112.638184,34.954834 C112.755372,34.8977048 112.858642,34.8193364 112.947998,34.7197266 C113.037354,34.6201167 113.108398,34.5036628 113.161133,34.3703613 C113.213867,34.2370599 113.240234,34.0927742 113.240234,33.9375 C113.240234,33.7177723 113.210205,33.5134287 113.150146,33.3244629 C113.090088,33.1354971 113.00879,32.9714362 112.90625,32.8322754 C112.80371,32.6931145 112.683594,32.5839848 112.545898,32.5048828 C112.408202,32.4257809 112.263184,32.3862305 112.11084,32.3862305 C111.961425,32.3862305 111.831788,32.4169919 111.721924,32.4785156 C111.61206,32.5400394 111.521973,32.6257319 111.45166,32.7355957 C111.381347,32.8454595 111.329346,32.9743645 111.295654,33.1223145 C111.261963,33.2702644 111.245117,33.4291984 111.245117,33.5991211 C111.245117,33.8012705 111.270019,33.9902335 111.319824,34.1660156 C111.369629,34.3417978 111.439941,34.4948724 111.530762,34.6252441 C111.621582,34.7556159 111.72998,34.8574215 111.855957,34.9306641 C111.981934,35.0039066 112.121093,35.0405273 112.273438,35.0405273 Z" id="Events-&amp;-Vermietung"></path>
            </g>
        </g>
    </g>
</svg>