<svg width="35" height="35" viewBox="0 0 35 35" fill="none" xmlns="http://www.w3.org/2000/svg">
<circle cx="17.5" cy="17.5" r="17" fill="white"/>
<path fill-rule="evenodd" clip-rule="evenodd" d="M17.5 35C7.83502 35 0 27.165 0 17.5C0 7.83502 7.83502 0 17.5 0C27.165 0 35 7.83502 35 17.5C35 27.165 27.165 35 17.5 35ZM24.0912 12.7083C24.0912 12.5335 24.0912 12.3703 24.1054 12.1955C24.0912 12.1372 24.077 12.0906 24.077 12.0323C24.0345 11.5427 23.7935 11.1231 23.4391 10.7384C23.4108 10.7151 23.3824 10.7035 23.3399 10.6801C23.3257 10.7151 23.3115 10.7384 23.3115 10.7617C23.2974 10.8084 23.2974 10.8433 23.2974 10.8783C23.2548 11.3212 23.1414 11.7642 22.8863 12.1605C22.6027 12.5918 22.3192 13.0114 22.0499 13.4543C21.5537 14.2819 21.1143 15.1095 21.1993 16.0654C21.2419 16.485 21.4403 16.858 21.6671 17.2426C21.6813 17.2193 21.6955 17.2193 21.6955 17.2077C21.7097 17.1727 21.7238 17.1261 21.738 17.0911C21.8798 16.6598 22.0641 16.2402 22.3476 15.8555C22.6027 15.5059 22.8863 15.1795 23.1273 14.8298C23.5384 14.247 23.9069 13.6292 24.0487 12.9531C24.0629 12.8715 24.077 12.7899 24.0912 12.7083ZM14.905 19.4301C14.9505 19.4189 14.9808 19.4189 14.9808 19.3963C14.9959 19.3511 15.011 19.2946 15.011 19.2382C15.011 18.9672 14.9808 18.6961 15.0262 18.4251C15.1928 17.454 15.5107 16.528 16.2073 15.6811C16.4647 15.3762 16.6767 15.06 16.919 14.7664C17.343 14.2582 17.7822 13.7501 18.2061 13.2306C19.1904 12.0449 20.0384 10.814 20.3564 9.40249C20.5836 8.42005 20.417 7.47149 20.0384 6.53422C19.675 5.65341 18.9936 4.89682 18.2364 4.1854C18.2213 4.16282 18.191 4.15152 18.1304 4.11765C18.1456 4.1854 18.1456 4.23057 18.1456 4.26445C18.1759 4.479 18.2213 4.68227 18.2667 4.88553C18.4484 5.70988 18.4787 6.54551 18.3273 7.36986C18.2061 8.00223 17.9639 8.60073 17.6459 9.18794C17.1764 10.0462 16.5859 10.8592 15.9802 11.6723C15.4048 12.4514 14.8748 13.2532 14.481 14.0888C14.2236 14.6422 14.0116 15.2068 13.9359 15.794C13.8299 16.6861 13.9359 17.5556 14.3145 18.4025C14.481 18.7526 14.7082 19.0914 14.905 19.4301ZM13.1722 7.76348C13.1571 7.76348 13.1268 7.77582 13.1116 7.80049C13.1116 7.8745 13.1268 7.94851 13.1116 8.02253C13.051 8.6393 12.7934 9.20674 12.4145 9.7495C11.8235 10.5883 11.2325 11.4395 11.0355 12.4263C10.9143 13.0554 10.99 13.6475 11.2931 14.2273C11.3234 14.2643 11.3689 14.289 11.4143 14.326C11.4447 14.289 11.4901 14.252 11.5053 14.215C11.6568 13.9312 11.778 13.6352 11.9599 13.3638C12.3691 12.7224 12.8388 12.1056 13.248 11.4641C13.6875 10.761 13.9602 10.0209 13.8845 9.21907C13.839 8.71332 13.6117 8.26924 13.248 7.86216C13.2177 7.82516 13.2025 7.80049 13.1722 7.76348ZM24.0537 21.3805C23.971 21.2302 23.8367 21.1902 23.6507 21.1902C19.5375 21.2002 15.414 21.1902 11.2904 21.1902C11.0941 21.1902 10.9804 21.3204 11.0217 21.5008C11.3834 23.1739 11.7555 24.8572 12.1172 26.5303C12.1379 26.6305 12.2102 26.7007 12.3032 26.7307C12.4066 26.7608 12.4789 26.7307 12.5616 26.6606C13.3057 26.0194 14.1531 25.849 15.0626 26.2097C15.9927 26.5804 16.4681 27.2918 16.5198 28.2737C16.5198 28.2937 16.5198 28.3238 16.5198 28.3538C16.5198 28.3538 16.5198 28.3638 16.5301 28.3738C17.1915 28.3738 17.8529 28.3738 18.5247 28.3738C18.535 28.2536 18.535 28.1334 18.5557 28.0132C18.7004 27.1215 19.2068 26.4903 20.0852 26.1797C20.9843 25.8691 21.7904 26.0594 22.4932 26.6706C22.5759 26.7508 22.6585 26.7808 22.7722 26.7508C22.8859 26.7207 22.9479 26.6405 22.9686 26.5303C23.0926 25.9492 23.2063 25.3781 23.3303 24.8071C23.5577 23.7651 23.7747 22.7231 24.002 21.6811C24.0124 21.621 24.033 21.5709 24.0537 21.5208C24.0537 21.4807 24.0537 21.4306 24.0537 21.3805ZM18.9174 28.3438C18.9071 29.3657 19.7235 30.2875 20.9017 30.2875C22.1625 30.2875 22.9169 29.3156 22.9169 28.3438C22.9169 27.2717 22.0281 26.4101 20.912 26.4101C19.8062 26.4101 18.9174 27.2717 18.9174 28.3438ZM20.9327 29.5361C20.2402 29.5361 19.6925 29.0051 19.6925 28.3438C19.6925 27.6725 20.2402 27.1415 20.9327 27.1415C21.6044 27.1415 22.1625 27.6825 22.1625 28.3438C22.1625 29.0051 21.6147 29.5361 20.9327 29.5361ZM14.1841 26.4201C13.0783 26.4201 12.1792 27.2818 12.1792 28.3538C12.1792 29.4158 13.0783 30.2975 14.1738 30.2975C15.2796 30.2975 16.1787 29.4259 16.1787 28.3538C16.1787 27.2918 15.2899 26.4201 14.1841 26.4201ZM14.1635 29.5361C13.4814 29.5361 12.9233 28.995 12.9233 28.3338C12.9233 27.6825 13.4814 27.1415 14.1531 27.1415C14.8352 27.1415 15.3933 27.6825 15.3933 28.3438C15.3933 28.995 14.8352 29.5361 14.1635 29.5361Z" fill="#4E342E"/>
</svg>
